<svg id="Layer_1" data-name="Layer 1" xmlns="http://www.w3.org/2000/svg" viewBox="0 0 792 612"><defs><style>.cls-1{fill:#fdd600;}.cls-2{fill:#fff;}.cls-3{font-size:14.56px;font-family:GothamBlack, Gotham Black;}</style></defs><title>FUTSRArtboard 1</title><path id="Sun" class="cls-1" d="M701.74,301.69q.09-3.13.09-6.29a228.29,228.29,0,0,0-4.64-45.91L542.44,285.25a76.39,76.39,0,0,0-4.35-13.7l149-56.76a226.55,226.55,0,0,0-23.31-45.28L530.68,258.1a77.3,77.3,0,0,0-7.35-9.11l117-109.08a228.46,228.46,0,0,0-38.35-32.75L508.3,236.59a76.66,76.66,0,0,0-13.47-6.76L563.13,86a225.6,225.6,0,0,0-48.57-14.4l-34.3,154.2a77.23,77.23,0,0,0-10.21-1L483.33,68.31c-2.92-.11-5.84-.19-8.78-.19a228.35,228.35,0,0,0-44.07,4.29l19.82,154.21a76.38,76.38,0,0,0-12.56,4l-45-147.3A226.63,226.63,0,0,0,345.95,108l78.53,129.71a77.27,77.27,0,0,0-8.2,6.34L325.63,123.7a228.58,228.58,0,0,0-35.69,39.11L406.6,254.34A76.95,76.95,0,0,0,520.74,357l122.07,91.18a227.91,227.91,0,0,0,31.1-43.58l-137.8-68.52q.9-1.8,1.72-3.66l145.55,52.8a225.6,225.6,0,0,0,15.32-52.09L543.32,313.49a77.55,77.55,0,0,0,.9-11.8Z"/><polygon points="135.56 424.13 202.91 350.53 208.03 326.65 280.61 261.29 309.77 290.84 361.5 210.7 412.94 265.83 434.54 245.37 496.46 298.8 515.82 291.7 624.39 424.13 135.56 424.13"/><polygon class="cls-2" points="170.68 400.34 198.14 373.99 187.88 404.59 186.77 395.9 170.68 400.34"/><polygon class="cls-2" points="239.47 302.6 280.34 271.44 293.75 285.22 280.8 282.26 275.16 290.77 271.19 287.02 239.47 302.6"/><polygon class="cls-2" points="328.05 271.63 362.08 220.96 413.03 272.64 434.94 254.15 496.62 302.05 514.74 299.27 528.61 316.38 512.61 304.36 497.36 308.43 461.57 282.91 460.55 289.19 454.64 284.76 448.81 293.17 429.58 268.67 413.03 277.73 378.63 245.83 378.63 253.32 367.9 245.46 365.78 262.2 359.4 251.66 344.51 271.07 343.03 259.42 328.05 271.63"/><polygon class="cls-2" points="593.3 398.92 567.72 373.96 574.59 394.4 593.3 398.92"/><text class="cls-3" transform="translate(233.71 541.33) scale(0.87 1)">KAYAKS•PADDLE BOARDS•TABLES•CHAIRS</text><path d="M297,434.38l-.74-1h-4.55c-.5,0-1,0-1.5,0s-.86-.18-1.33,0a5.13,5.13,0,0,1-1.48,0c-.16.31-.42.58-.44.86a18.85,18.85,0,0,0,.07,4.3,2.74,2.74,0,0,1,0,1.46,2.21,2.21,0,0,0-.13.84c0,1.68,0,3.35,0,5a3.11,3.11,0,0,0,0,.51,7.31,7.31,0,0,1,0,2.89,9.62,9.62,0,0,0,.09,2.76,6.38,6.38,0,0,1,.27,2.67.6.6,0,0,1-.76.31,4.63,4.63,0,0,1-.69-.92,29.74,29.74,0,0,0-2.87-4.62c-.8-1.19-1.53-2.44-2.27-3.66s-1.68-2.59-2.5-3.9c-.58-.93-1.19-1.83-1.79-2.73a41.55,41.55,0,0,0-4.07-5.53h-1.83a7.39,7.39,0,0,1-2.24,0,6.55,6.55,0,0,0-2.28-.19,2.55,2.55,0,0,0-1.67.58c.21.86-.24,1.62-.19,2.47a30.1,30.1,0,0,0,.18,3.38,15.74,15.74,0,0,1,0,3.21,9.54,9.54,0,0,1-.2,3.25.49.49,0,0,0,0,.37c.3.26.19.62.19.94,0,1.89,0,3.78,0,5.67a28.86,28.86,0,0,1-.21,5.69V474c.31,1.21.91,1.4,1.67,1.4,2,0,4-.44,6-.27.32,0,.65,0,1,0a1.37,1.37,0,0,0,1.62-1.18c0-.3.15-.75,0-1a2.58,2.58,0,0,1-.18-1.59c0-.55-.24-1-.26-1.57,0-1.07.29-2.07.24-3.12a62.48,62.48,0,0,0-.19-7.12c-.25-1.63.22-3.27.2-4.92,0-.23-.11-.51-.06-.56a.56.56,0,0,1,.84.14,23.49,23.49,0,0,1,1.6,2.43c.79,1.16,1.68,2.24,2.39,3.46.27.46.58.91.84,1.36.74,1.26,1.38,2.62,2.2,3.83.35.52.77,1,1.08,1.52.63,1.13,1.4,2.12,2.09,3.2a27.19,27.19,0,0,1,1.8,3.24,3.05,3.05,0,0,0,2.81,2.1c1.88,0,3.72-.53,5.27-.3,1.07-.26,1.28-1.14,1.66-1.68.18-3-.18-5.85.23-8.74.14-1,0-2.06,0-3.09s-.26-2-.24-3c0-2.23,0-4.47,0-6.7s0-4.55,0-6.83a59.63,59.63,0,0,1,.17-6.6A32.34,32.34,0,0,0,297,434.38Zm-20.67,9.38a.36.36,0,0,1-.06.43c-.28,0-.4-.18-.52-.42A.48.48,0,0,1,276.36,443.75Zm.24,1.4a.76.76,0,0,1-.33.83c-.13-.34-.25-.66-.38-1a1.58,1.58,0,0,0-.17-.24C276.2,444.63,276.49,444.74,276.61,445.16Zm-1.71-3.42c-.07.12-.14.12-.21,0S274.83,441.62,274.9,441.74Zm-1.18.13a.35.35,0,0,1,0,.52A.35.35,0,0,1,273.72,441.86ZM273,440.2a.23.23,0,0,1,.35-.1c.13.09.07.23.09.35-.14.2-.29.19-.43,0Zm-.18.48.4.92a.59.59,0,0,0-.33.29A2.42,2.42,0,0,1,272.78,440.68Zm-.44,1.8c.14-.14.25-.14.45.06l-.45.29Zm-.56-4c.52.33.52.33.43,1C271.69,439.22,271.69,439.22,271.78,438.52Zm.34,4.51c-.18.17-.29.18-.42,0C271.79,442.79,271.93,442.86,272.12,443Zm-.95,2.92a.24.24,0,0,1-.36-.09.67.67,0,0,1,.35-.63A.8.8,0,0,1,271.17,446ZM271,444.3c-.38.46-.92.63-1.19,1.2-.22-.31,0-.63-.15-.89C270.13,444.36,270.48,444,271,444.3Zm-.66-1.27c-.07.12-.14.12-.21,0S270.31,442.91,270.38,443Zm-1.39-.65c.41,0,.49.43.81.68a1.15,1.15,0,0,1-.87,0C268.88,442.84,268.81,442.61,269,442.38Zm-.3,5.06-.49.19-.17-.21C268.21,447.11,268.44,447.42,268.69,447.44Zm-1-5.05a.14.14,0,0,1,0,.25A.14.14,0,0,1,267.7,442.39Zm-.21,3.09a.38.38,0,0,1,.05.47l-.31.07C267.1,445.57,267.21,445.45,267.48,445.48Zm.51,1.16c0,.19-.36.27-.3.64l-.65-.84C267.53,446.11,267.79,446.24,268,446.64Zm-1.85,22.82c-.25,0-.32-.25-.48-.39.24-.32.48-.61.87-.25A.81.81,0,0,1,266.14,469.46Zm.7,4.66c-.14-.21-.15-.35,0-.5C267,473.72,267,473.88,266.84,474.12Zm0-22.74s-.11-.08-.12-.14c-.13-.46.43-.85.16-1.27s-.13-.81-.16-1.21,0-.93,0-1.35c.2-.19.38-.09.61-.12a2.88,2.88,0,0,0,.32,1.17c-.46,0-.5.5-.7.78.17.21.32.42.62.39s.36.31.54.59C267.52,450.44,267.24,451,266.86,451.37Zm.52.68a.79.79,0,0,1,.37-.9c.28,0,.41.23.48.49S267.85,452.09,267.38,452.05Zm1.09,5.29c-.22,0-.29-.26-.45-.4.22-.27.43-.06.64-.09C268.67,457.11,268.7,457.29,268.47,457.35Zm-.19-4.09h1.43A1.52,1.52,0,0,1,268.27,453.25Zm1.62-.85c-.21,0-.42.14-.58-.09,0-.29,0-.58.21-.78a.44.44,0,0,1,.65,0C270.21,451.89,269.89,452.07,269.89,452.4Zm.06,7h0c-.1,0-.17,0-.19-.14s0-.08.06-.08A.18.18,0,0,1,270,459.39Zm-.55,6.44a.68.68,0,0,1,.14-.92l.59.59A.59.59,0,0,1,269.41,465.83Zm.91-5.94a.68.68,0,0,1-.36-.49l.35,0A.41.41,0,0,1,270.32,459.89Zm2.43-10.42a2.74,2.74,0,0,0-.64,1.15v1.15c-.15.16-.23.44-.53.41-.24-.24-.06-.61-.16-1l-.42-.5c-.11-.31.26-.58.25-.91-.28-.24-.53,0-.75-.16-.25.56-.3.62-1,1.1-.25-.36-.63-.32-1-.3-.14-.25-.42-.34-.24-.76h1v-1.19c.41-.2.74-.55,1.36-.22l.22.33c.29.12.36-.17.52-.23.33.09.66.58,1,0C272.84,448.54,272.74,449,272.75,449.47Zm4,2.19a.14.14,0,0,1,0-.25A.14.14,0,0,1,276.72,451.66Zm-.85,0c-.31-.42.11-1-.31-1.41.08-.27.38-.36.4-.63-.3,0-.49-.15-.61-.46.18-.17.37-.11.6,0l0,.44a8.62,8.62,0,0,0,1.21,0C276.44,450.19,276.34,451.08,275.88,451.68Zm1.49-2.6a.14.14,0,0,1,0-.25A.14.14,0,0,1,277.37,449.08ZM277,447a2.78,2.78,0,0,0,.41.9.59.59,0,0,1-.7.4c-.27-.13-.08-.69-.49-.69-.19.32-.53.15-.83.18s0,.49-.21.78l-1.32-.53c-.27.54.26.61.31.94a.19.19,0,0,1-.28.09c-.4-.33-.35-.94-.54-1.4a1.24,1.24,0,0,1,0-.34l-.36-.11v-1.05c-.25-.37-.49-.6-.85-.37s.24.47.14.88a2.19,2.19,0,0,0-1.92,1.33c-.29-.53-.14-1.06-.55-1.24-.21-.1-.29.16-.49.28l-.84-.55a1,1,0,0,1,0-.26c-.1,0-.17,0-.19-.15s0-.08.06-.08a.18.18,0,0,1,.13.23c.15,0,.22.08.22.26h.54c.19-.1,0-.43.23-.52.64,0,.93,1.07,1.71.71a4.64,4.64,0,0,1,.95-1.36v-1c-.07-.19-.24-.11-.33-.16s-.09-.25-.1-.37a.43.43,0,0,1,.73.1c.37.13.42-.59.64-.28.45.14.57.77,1.09.53s.48-1.54,1.27-1.79c.37.53-.17.84-.11,1.22-.15.16-.34,0-.41.3v.52c-.49.17-1.12-.15-1.5.49.2,1,.75,1.48,1.63,1.35l.45-.53.49.76c.83.22,1.26-.46,1.91-.63l.47.27a1.54,1.54,0,0,0,.3,1.24l-.4.47C277.73,447.77,277.64,447,277,447Zm-2.24-1.56c-.12.11-.33.11-.58-.09l.39-.38Zm3.63,3.65a.14.14,0,0,1,0-.25A.14.14,0,0,1,278.44,449.08Zm.25,3.87c-.59,0-.5-.66-.77-.92.17-.43.62-.3.76-.65.31.08.42.27.54.58C279,452.28,278.72,452.53,278.69,453Zm1.14-.13c.17-.18.28-.18.42,0C280.16,453.07,280,453,279.83,452.83Zm3,5.44c-.07.16-.19.08-.29.1a.34.34,0,0,1,0-.52C282.8,457.82,282.91,457.95,282.82,458.27Zm2,8.26c.08-.28.22-.21.42,0C285.06,466.67,284.94,466.66,284.81,466.53Zm.51-7.65a.14.14,0,0,1,0-.25A.14.14,0,0,1,285.32,458.88Zm1.46,10.1c-.14-.56.1-.74.56-.88C287.39,468.73,287.15,468.88,286.78,469Zm.9-5.48c-.15-.11-.09-.25-.1-.37.17-.26.39,0,.51-.13.18.13.12.27.15.49Zm2.16-19.82a.38.38,0,0,1,0-.5C290,443.29,290,443.45,289.84,443.69Zm.13,27.74c.08-.28.22-.21.42,0C290.22,471.57,290.1,471.56,290,471.43Zm2.32-33.31c.09-.57.39-.69.81-.62C293,438.23,293,438.27,292.28,438.12Zm1.42,3.75a.14.14,0,0,1,0-.25A.14.14,0,0,1,293.7,441.86Zm2-.9c-.1.15-.22.16-.39.07l-.06-.37C295.66,440.5,295.77,440.64,295.74,441Z"/><path d="M338.08,456.71a22.39,22.39,0,0,0-.2-3.51c-.15-.68.1-1.49-.06-2.17a7.57,7.57,0,0,0-.39-2c.19-1-.49-1.88-.43-2.88-.65-1.52-1-3.23-1.75-4.66-.17-.31-.25-.88-.71-.93a17.72,17.72,0,0,0-2-2.32,7.11,7.11,0,0,0-1.38-1.28,13.63,13.63,0,0,0-4.13-2.34,3.52,3.52,0,0,1-.77-.5c-.27,0-.74.17-1,0-.46-.44-1-.13-1.48-.42a2.84,2.84,0,0,0-1.69,0c-.61.07-1.14-.29-1.74-.3a26.5,26.5,0,0,0-3.35.28c-1.3.15-2.57-.34-3.88-.28-1.89.09-3.79,0-5.69,0a4.89,4.89,0,0,0-2.19.55,11.94,11.94,0,0,0-.33,4.17c.05,1.77-.23,3.56.2,5.3a30,30,0,0,1-.18,4.54,10.8,10.8,0,0,0,0,2.69,9.14,9.14,0,0,0,.17,2.61,8.08,8.08,0,0,1,0,1.79c0,.64-.25,1.18-.25,1.83,0,4.55,0,9.1,0,13.66,0,1.09-.44,2.13-.21,3.12a2.55,2.55,0,0,0,.82,1.3c.8-.3,1.59.24,2.43.22,1.32,0,2.65,0,4,0a15.25,15.25,0,0,0,4-.22,3.74,3.74,0,0,1,1.63.19,20.16,20.16,0,0,0,2.79,0c.95,0,1.86-.45,2.81-.27.06,0,.13,0,.19-.08a2.77,2.77,0,0,1,1.46-.38,6.74,6.74,0,0,0,2.18-.58,10.66,10.66,0,0,0,4.54-3,32.38,32.38,0,0,0,3.2-3.78,23.74,23.74,0,0,0,1.5-2.86,8.79,8.79,0,0,1,.36-1.5,22.08,22.08,0,0,0,.74-2.47,3.2,3.2,0,0,1,.48-1.33C337.65,458.15,338.12,457.47,338.08,456.71Zm-30.3-19.1c.07-.12.14-.12.21,0S307.84,437.73,307.77,437.61Zm1.58,7.05-.29-.35.3-.36C309.7,444.15,309.31,444.44,309.35,444.67Zm1.57-3.87a.73.73,0,0,1-.3-1l.59.34C311.27,440.49,311.05,440.61,310.92,440.8Zm.29,6.61c.07-.12.14-.12.21,0S311.28,447.53,311.21,447.41Zm23.12-.11c.12.16.12.3,0,.54l-.18-.54Zm-.55,1.11a.24.24,0,0,1,.4,0c0,.39-.2.47-.4.83Zm-7.3-7.14a3,3,0,0,1,.35.15c.06,0,.1.12.15.18.14-.1.22-.37.43-.23.3-.36-.15-1,.43-1.24.1-.07.12.1.27.18l.23-.61v-1.23c-.75.17-1.28,1.09-2.1.72v-.3c.15-.27.41,0,.61-.21a1.36,1.36,0,0,1,.05-.32.92.92,0,0,1,.16-.23c-.19-.64-.69-.28-1-.48-.06-.67.5-.41.64-.72l.91,1.12c.51.11.68-.38.93-.59.64-.09,1,.59,1.54.85a5.66,5.66,0,0,1,.37,1.23c.5-.37.5-.37.63-1,.42-.13.48.41.76.58v2.64l-.25.3a1.55,1.55,0,0,0-1.24-.13v.35l1.27.73c-.3.2-.14.58-.24.86-.07,0-.14.09-.19.06-.45-.22-.51-.25-.94,0-.72-.35-.49-1-.72-1.51s.12-1.11.23-1.61l-.38-.45-.74,1a.74.74,0,0,1-.21.68l.42.5v1.07c.41.08.61.46.86.74-.2.37-.55.45-.9.69-.39-.43-1.06-.06-1.45-.67.14-.31.54-.46.36-1.1a3.13,3.13,0,0,0-1.78-1.39c-.36.62.28.41.3.72a1.21,1.21,0,0,1-.82,0v-.87c.41-.18.32-1,.86-1.15C326.62,440.7,326.39,441,326.49,441.27Zm.54-1.78.22.56H327C326.86,439.89,326.86,439.74,327,439.48Zm2.83,7c-.26-.11-.2-.27-.07-.51C330,446.17,329.9,446.32,329.86,446.49ZM325,435.81c-.07.12-.14.12-.21,0S324.89,435.69,325,435.81Zm-.25,1.2c0,.28.12.53-.07.73h-.38c-.26-.09-.35-.46-.73-.73Zm-1,2.27c.64,0,.46-.81.9-1,.19.45.6.5,1.18.67a2.17,2.17,0,0,0-1.12,1.45c.17.37.51,0,.66.32-.1.25-.47,0-.46.39-.91-.63-.91-.63-1.17-1.55-.28-.17-.34.51-.72.12-.16-.25,0-.5.2-.89A1.5,1.5,0,0,1,323.76,439.29Zm.66,3.12-.32-.47.39-.22A.69.69,0,0,1,324.42,442.41Zm-.67-1.06c-.34,0-.46-.25-.57-.81l.71.43C323.87,441.09,323.93,441.23,323.75,441.35Zm-1.8-6.06c-.07.12-.14.12-.21,0S321.88,435.17,322,435.29Zm-2.49.42a.18.18,0,0,1,.13.23c.3-.07.49.11.62.42-.18.17-.37.11-.6,0l0-.44c-.1,0-.16,0-.18-.16S319.44,435.7,319.46,435.71Zm-.56,1.2c.44.67,1.17,0,1.68.55.33-.16.23-.69.56-.91a3.52,3.52,0,0,1,1.36.66l.22-.23c.24-.07.32.17.49.33v1.34c-.27.08-.41.37-.65.39s-.17-.58-.45-.73,0-.56-.22-.78c-.69-.12-1.08.78-1.75.73-.56.67-1.27.52-2,.5l-.28-.34A4,4,0,0,1,318.9,436.9Zm3.69,3.83c-.41.3-.44-.22-.69-.29.1-.32.15-.41.28-.39C322.52,440.12,322.31,440.62,322.59,440.73Zm-1.66-1.49.59.68c.05.34-.18.45-.31.64C320.81,440.27,320.84,439.83,320.93,439.25Zm.16,3.05c-.37.23-.45-.15-.65-.31l.34-.34A.64.64,0,0,1,321.09,442.3Zm.22-3.4c.07-.12.14-.12.21,0S321.38,439,321.31,438.9Zm-4.88-3.15c.52.11.76.68,1.33.89-.45.35-.26.91-.35,1.32-.34.15-.43-.15-.62-.33v-1.06c-.35-.27-.73,0-1-.19l0-.25C315.84,435.64,316.41,436.29,316.43,435.75Zm-1,2a.38.38,0,0,1,0,.5C315.2,438.13,315.26,438,315.39,437.72Zm-2.21-1.19a.47.47,0,0,1,.57,0l0,.29-.76.45C312.93,436.95,313.23,436.79,313.19,436.53Zm.8,2.14-.58-.32.49-.1C314.05,438.43,314,438.6,314,438.67Zm5.61,31.94c.07-.12.14-.12.21,0S319.66,470.74,319.59,470.62Zm1.27.54-.58-.32.49-.1C320.93,470.92,320.91,471.09,320.86,471.16Zm1.5,0c-.07.16-.19.08-.29.1a.34.34,0,0,1,0-.52C322.33,470.71,322.45,470.84,322.35,471.16Zm1.86-.42H324a.35.35,0,0,1-.08-.41c.07-.16.19-.08.29-.1A.34.34,0,0,1,324.21,470.75Zm-.68-6.7a3.36,3.36,0,0,0-.65.31,2.47,2.47,0,0,1-1.56.46c-1.63-.17-3.22.44-4.85.25-.29,0-.46.39-.77.27s-.4-.6-.85-.55c.14-.9-.27-1.69-.21-2.59s-.09-1.82,0-2.7c.41-2.88.06-5.78.21-8.66,0-.74-.24-1.37-.24-2.08a4.84,4.84,0,0,0-.17-2,2,2,0,0,1,0-1.38,3.85,3.85,0,0,0,.18-1.34,1.88,1.88,0,0,1,1.71-.92c1.43,0,2.86,0,4.29,0a1.58,1.58,0,0,1,.88.24c.26.16.61-.12.91.19s.62,0,.89.15A10.51,10.51,0,0,1,328,449.6c-.15.83.32,1.72.24,2.7a22.92,22.92,0,0,0,0,2.83c0,.6-.22,1.14-.2,1.7a6.4,6.4,0,0,1-.27,1.56,7.08,7.08,0,0,1-.43,1.58C326.41,461.8,325.33,463.42,323.53,464Zm3.9,2.33a.8.8,0,0,1,0-.74.23.23,0,0,1,.35.06C327.83,466,327.59,466.13,327.43,466.38Zm1-1.43c-.09.18-.21.11-.32.13-.16-.33-.16-.54.32-.52Zm.07-.23.53-.23C329,464.76,329,464.76,328.45,464.72Zm1.18,1.94c-.14-.67.3-.94.57-1.61C330.51,466.18,329.92,466.3,329.62,466.66Zm1.75-4c-.25.21-.54.06-1.08.06a4.57,4.57,0,0,0,1.08-1.45Zm-1-14.21c.15-.19.29-.19.43,0C330.62,448.63,330.48,448.63,330.33,448.44Zm1.13,1.22-.07-.43c.11-.17.23-.18.47-.06Zm.37-2.51c.07-.12.14-.12.21,0S331.91,447.27,331.84,447.15Zm.94.66c-.29,0-.35-.27-.52-.4l.58-.62.29.38C333.17,447.61,332.83,447.61,332.77,447.81Zm.76-2.69-.28.34c-.55.11-1.13-.19-1.65.3-.29-.39-.68-.27-1.05-.28.14.36.29.7.41,1l-1,1.17s-.08-.27-.21-.34-.31.11-.43.29c-.21-.52.08-.65.29-.81s.26.13.35.22c.66-.26.12-1.14.52-1.59,0-.46-.32-.92-.17-1.48.31,0,.47.06.54.27.22.71.69.79,1.24.76a1.7,1.7,0,0,0,.66-1c.31-.11.55,0,.76.34Zm1.1,4.94a1.6,1.6,0,0,0-.93.37c-.31-.45,0-.58.15-.78,0,0,.06-.05.09,0,.26.11.46-.19.7-.18Z"/><path d="M396.92,469.83c.56.87,1,1.81,1.61,2.67a18.17,18.17,0,0,0,1.74,2.62h9.94l.77-.7c-.2-.38-.36-.68-.51-1-.61-1.23-1.63-2-2.29-3.24-.47-.85-1.06-1.63-1.54-2.47-.9-1.54-1.87-3-2.77-4.54L402,460c.27-.08.33-.32.57-.4a7.33,7.33,0,0,0,1.59-1,8.19,8.19,0,0,0,2.37-2.13c.43-.64.82-1.3,1.22-2a13.08,13.08,0,0,0,1.43-5.21c0-1.33,0-2.66,0-4a5.16,5.16,0,0,0-.34-1.9,19.63,19.63,0,0,0-3.77-6.63,10.72,10.72,0,0,0-2.13-1.61,13.88,13.88,0,0,0-1.93-.92,4.72,4.72,0,0,0-1.92-.62c-2.13.08-4.23-.45-6.35-.3-.89.06-1.79,0-2.68,0-.4,0-.85-.21-1.21.23a.35.35,0,0,1-.4,0c-.26-.37-.6-.21-.9-.22-1.47,0-2.93,0-4.4,0a2.73,2.73,0,0,1-.9-.16,2.83,2.83,0,0,0-2,0c-.3.12-.62,0-.89.22l-.39.47a5.28,5.28,0,0,0-.28,2.52,7.3,7.3,0,0,1,.17,2.35,57.44,57.44,0,0,1-.2,7.88v16.23c0,.26-.09.59,0,.76.43.71.13,1.49.19,2.23a7.47,7.47,0,0,1,0,2.3,5.31,5.31,0,0,0-.15,1.84,11.42,11.42,0,0,1-.25,2,15.2,15.2,0,0,0,.3,2.71,4.32,4.32,0,0,0,1.28.45h8.22a2.24,2.24,0,0,0,.52-1.73,16.64,16.64,0,0,0-.21-4v-7.56c1-.65,2.11-.22,3-.35a2.46,2.46,0,0,1,1.23,1.26,12.48,12.48,0,0,0,.86,1.4,9.32,9.32,0,0,1,1,1.67A24.43,24.43,0,0,0,396.92,469.83Zm7.17,2.21a.67.67,0,0,1,.33.42c-.07.14-.19.07-.28.09S404,472.29,404.09,472Zm-1.68-3.63c.17.19.15.36.09.43l-.32-.38Zm-3.85-4.1c-.18-.19-.12-.33-.07-.51C398.76,463.91,398.69,464.08,398.56,464.31Zm4-8.09c.08-.28.22-.21.42,0C402.81,456.35,402.69,456.35,402.55,456.22Zm0-3c.26.11.2.27.07.51C402.47,453.55,402.53,453.4,402.57,453.23Zm.94-1.08c-.38.18-.62-.24-.94-.31-.23-.64.24-.86.49-1.2.33.29.49.84,1,.8Zm0-3.34c-.35-.08-.58.22-.87.28-.2-.17-.21-.37,0-.52.69-.59.69-.58.82-1.25.18,0,.25.22.35.35a.6.6,0,0,0-.15.65c.07.29.62.18.79.62C404.1,449.42,403.84,448.89,403.54,448.82Zm1.16,2.25,0-.44a.53.53,0,0,1-.11-.75c.24.21.07.51.16,1,.09-.19.22-.17.36-.16l0,.37C405,451.18,404.86,451.18,404.7,451.07Zm-.13-3.27a.14.14,0,0,1,0,.25A.14.14,0,0,1,404.57,447.8Zm2.07-2.84c-.24.59-.4.13-.57,0-.12.15-.23.33-.51.19v-1.39l-.46-.19.32-.45c.51.11.49.51.59.93S406.51,444.59,406.63,445Zm-1-2.84c.28,0,.4.18.55.47h-.6A.39.39,0,0,1,405.64,442.13Zm-.85-2.08c.38.06.48.43.71.62-.24.53-.4,1.13-1,1.26l-.37,1c-.31-.48-.74-.18-1.08-.28l-.32.38c.46,1.13.46,1.13,1.4,1.67.18-.19.31-.45.57-.55.38.56.34,1.34.85,1.78s1.06.28,1.55.33l.37.4a9.51,9.51,0,0,1-.44,1.8c-.28.2-.53.09-.79.12-.21-.47,0-1-.13-1.47-.09-.12-.19-.07-.3-.06-.22.28,0,.67-.14.94l-.44-.63-.12.12-.05-.64c-.34-.13-.78,0-.91-.76l-.58.69c-.28-.09-.43-.43-.53-.55-.35-.57.29-.77,0-1.26-.28.24-.48.78-1,.45v-1.24c-.16-.45-.5-.43-.67-.66,0-.64.89-.72.58-1.58.6-.07,1.14-.2,1.63.27A9.25,9.25,0,0,0,404.79,440Zm-.55,3.17v.34c-.24.23-.51.09-.76.1s-.09-.22-.11-.48l.38.24C403.95,443.53,404,443.12,404.25,443.21Zm-1.18-1.86a.35.35,0,0,1,0-.52A.35.35,0,0,1,403.06,441.35ZM402,437.74a.35.35,0,0,1,.08.42.5.5,0,0,1-.61,0C401.6,437.94,401.71,437.71,402,437.74Zm0,2.08a.81.81,0,0,1-.28-1A.76.76,0,0,1,402,439.82Zm-.24.25c.36-.07.88.16,1.29-.4.19.62-.09.72-.26.93-.29-.06-.52-.43-.86-.23l-.15.44c-.14.07-.27.07-.35-.11S401.57,440.31,401.78,440.07Zm-.54,1.15c-.07.12-.14.12-.21,0S401.17,441.1,401.24,441.22Zm.32.64c.24.26.05.52.09.77h-.5c-.24-.19,0-.46-.13-.63C401.2,441.78,401.39,441.91,401.56,441.87Zm-.75-4.71c0,.32-.2.39-.31.58-.21-.27-.5-.44-.58-.91C400.4,436.57,400.64,436.78,400.81,437.15Zm-11.88,5.76c2.1-.55,4.37-.19,6.62-.23a3.31,3.31,0,0,1,1.19.25,3.89,3.89,0,0,1,1.29.61,8.26,8.26,0,0,1,1,1.56c.17.24-.1.76.24,1,.17,1.41.49,2.84-.21,4.19,0,.09,0,.25,0,.33L397.94,452c-.1.31-.34.06-.54.23a2.36,2.36,0,0,1-1.67.45,22.11,22.11,0,0,0-2.81.2c-1.14.12-2.29-.32-3.45-.23-.21,0-.42-.2-.64-.31a5.26,5.26,0,0,1-.2-2.93,5.38,5.38,0,0,0,0-2.27,15.32,15.32,0,0,1,0-1.92c0-.36.14-.78-.36-1C388.69,443.9,388.42,443.27,388.92,442.91Zm-2.51,12.38a1.43,1.43,0,0,0-.69,1.25.74.74,0,0,1-.68-.17c-.37-1.05.13-1.05.69-1.05l.35-.6C386.21,455,386.43,455,386.42,455.29Zm-.21,5.27c-.22.23-.35.56-.63.32-.09-.42.21-.53.41-.87v-1.25c.07-.14.18-.13.33-.13C386.66,459.32,386,459.93,386.21,460.55ZM385,457.82a.7.7,0,0,1-.33-.65.62.62,0,0,1,.31-.54C385.4,457.29,385.35,457.57,385,457.82Zm.64-4.09a.35.35,0,0,1,0,.52A.35.35,0,0,1,385.66,453.73Zm0-5.93a.14.14,0,0,1,0,.25A.14.14,0,0,1,385.66,447.8Zm.32,4.51c-.1.15-.22.16-.39.07l-.06-.37C385.9,451.85,386,452,386,452.31Zm-1.25.38c-.22.09-.26-.27-.45-.26s-.23.15-.34.26l-.35-.84a1.28,1.28,0,0,1,1.13-.71C385.27,451.78,385.27,452.05,384.74,452.69Zm-.22,3.2a.73.73,0,0,0-.57-.18l.13-.4Zm-.67-6.17c-.17.18-.28.18-.42,0C383.51,449.49,383.65,449.57,383.85,449.73Zm-.78,3.22c.18.19.12.33.07.51C382.88,453.34,382.94,453.18,383.07,452.94Zm-.53,2h-.38l-.06-.38C382.38,454.42,382.56,454.42,382.54,455Zm-2.16,9.7c.17-.18.28-.18.42,0C380.72,464.93,380.58,464.85,380.38,464.69Zm.73,5.82c0-.54-.37-.92-.27-1.46.49-.06.49-.06.85.36A2.9,2.9,0,0,1,381.11,470.51Zm0-3.12a.35.35,0,0,1,0,.52A.35.35,0,0,1,381.15,467.39Zm.67-.2c-.2-.29-.11-.51-.13-.71.17-.22.37-.11.63-.07C382.37,466.86,382.13,467,381.82,467.19Zm-.12-2v-.32c.33-.29.42.13.7.28C382.09,465.36,381.9,465.39,381.7,465.23Zm1-.77c-.07.16-.19.08-.29.1a.34.34,0,0,1,0-.52h.21A.35.35,0,0,1,382.73,464.46Zm.35,1.91a.35.35,0,0,1-.08-.42c.08-.15.19-.08.34-.11C383.47,466.27,383.36,466.39,383.08,466.36Zm1.51-.53c-.2-.27-.51-.43-.57-.89.43-.31.69-.09.94.44Zm.47-1.28h-1.29c-.58-.36-.63-1.25-1.22-1.56-.58.18-1.17.36-1.75.52a.31.31,0,0,1-.42-.13c0-.65.56-.58.8-.89.19,0,.26.12.4.26a2.28,2.28,0,0,0,1.18-.9c.31.35.09.95.6,1.13a.7.7,0,0,0,.86-.36v-1.31c-.15-.36-.63-.55-.69-1.36l-.36.79a2.33,2.33,0,0,1-.43-1.76,4.06,4.06,0,0,0-2.12-1.1v-1c0-.23.56-.26.37-.8h1c.17.46,0,1,.12,1.48l.3,0c.21-.4-.05-.86.16-1.24.18-.06.34-.09.36.24s.35.4.44.72-.34.32-.15.75c.2.27.45,0,.71-.17.18.19,0,.5.13.73.12,0,.24,0,.31,0s.3-.48.58-.47c.26.18.06.49.17.7l.39.47V460l-.85.51c-.05.33.18.44.34.68h.89c.12.38,0,.52-.37.47.09.53-.21.86-.25,1.26s.46.45.47.91C385.61,464.18,385.12,464.09,385.07,464.56Zm-4.36-3.68c.38.18.58.36.54.75-.09,0-.16.12-.2.09C380.79,461.56,380.48,461.42,380.71,460.88Zm.78-.29v-1.35c.28-.17.29.53.58.13v1.56C381.75,461,381.66,460.75,381.49,460.58Zm1.51,1c.09-.28.23-.2.42,0C383.24,461.76,383.13,461.77,383,461.63Zm2.88,4.73h-.21a.35.35,0,0,1-.08-.41c.07-.16.19-.08.29-.1A.34.34,0,0,1,385.88,466.36Zm.13-3.44c.08-.28.22-.21.42,0C386.26,463.06,386.14,463,386,462.92Zm.55-5.37a.24.24,0,0,1-.36-.09c0-.08,0-.19,0-.24a4.45,4.45,0,0,1,.33-.42A.83.83,0,0,1,386.56,457.55Zm1.44-.73c-.34,0-.46-.25-.56-.78l.7.38C388.12,456.56,388.18,456.7,388,456.82Zm.11-1.16.39-.38.19.47C388.57,455.86,388.36,455.86,388.11,455.66Zm.44-1c.57-.07.62,0,.58,1C388.92,455.23,388.55,455.11,388.56,454.63Zm.84,4.41c-.07.16-.19.08-.29.1a.34.34,0,0,1,0-.52C389.37,458.6,389.48,458.72,389.39,459Zm2.41-1.79a3.28,3.28,0,0,0-.24,1.74l.45.57c-.7.11-1.34.5-2.07.32-.11-.16-.35-.25-.31-.57a.26.26,0,0,1,.24-.18c.09,0,.18-.11.35-.24l.22.49H391c.23-.23-.05-.76.33-1a2.57,2.57,0,0,1-.27-1.07l-.74,0a2.24,2.24,0,0,1-.39-1c-.5.12-.7.57-.89,1l-.27-.32.47-1.19c.26-.05.5-.08.66.23.16-.14.25-.43.51-.24a2.25,2.25,0,0,0-.28-1.7c.56-.2,1-.18,1.26.43h1.14a1.12,1.12,0,0,1,0,.66c-.4,0-.51.53-.85.63l-.34-.24-.29.35A2.56,2.56,0,0,1,391.81,457.25Zm.62,1.91c-.19,0-.27-.27-.34-.32l.19-.45c.34,0,.39.22.62.39Zm-.22-2.22c.26-.11.14-.47.32-.63.18.29.52.44.56.87C392.75,457.53,392.51,457.34,392.21,456.94Zm1.47,1.39a1.29,1.29,0,0,1,0-1.2Z"/><path d="M361.29,474.88a.4.4,0,0,1,.42,0c.48.41,1,.25,1.53.24,2.69-.09,5.38.28,8.06-.29l.23-.28a16.22,16.22,0,0,0,.28-3.6.69.69,0,0,1,0-.37A1.84,1.84,0,0,0,372,469a7.42,7.42,0,0,1-.17-2.1,2.21,2.21,0,0,0-.55-1.59c-1,.16-2-.33-3.09-.29a20.69,20.69,0,0,1-2.17.3c-1.51-.11-3,.22-4.53-.24a11.1,11.1,0,0,0-1.28,0c-.44-.08-.77.31-1.2.29-1.57,0-3.14,0-4.7,0-.21-.32-.61-.27-.75-.69a24.58,24.58,0,0,1,0-2.94,8.57,8.57,0,0,1,.49-2.82h15.71l.27-.32a11.56,11.56,0,0,0,.25-3.41,27.75,27.75,0,0,1-.19-4.41c0-.17,0-.34,0-.5-.26-.25-.23-.88-.54-.86s-.68-.36-1.1-.32c-1,.11-2.11-.14-3.13.28-2.83.09-5.68-.21-8.5.25a16.08,16.08,0,0,1-1.61,0,1.52,1.52,0,0,1-1.41-.6,9.85,9.85,0,0,1,.22-5.5,4.76,4.76,0,0,1,1.75-.37c.34,0,.57.28.88.29.75,0,1.5,0,2.26,0s1.49.35,2.28.3c.37,0,.61-.37,1-.31a7.47,7.47,0,0,0,1.18,0c.64,0,1.29,0,1.93,0a7.83,7.83,0,0,1,2.82.23c.53.22,1.08-.17,1.62-.22a1.68,1.68,0,0,0,1.23-.44c-.11-.48.24-.82.23-1.31,0-2.49,0-5,0-7.37l-.47-.92a1.81,1.81,0,0,0-.32,0c-1.37.1-2.74-.22-4.1.24-.73.25-1.43-.28-2.16-.24-2.26.12-4.53-.25-6.79.23a23.44,23.44,0,0,1-2.36,0c-.82.09-1.57-.33-2.38-.3-2.07.07-4.15,0-6.23,0h-1.73l-.32.39a9.42,9.42,0,0,0,0,1c0,.36-.24.56-.24.93a27.19,27.19,0,0,1-.19,5.18c-.19,1,.25,1.88.23,2.86-.05,2.15,0,4.3,0,6.44a46.93,46.93,0,0,1-.18,6.34,28.3,28.3,0,0,0,.17,4,85.29,85.29,0,0,1-.15,8.79,16.14,16.14,0,0,0,.26,5.29l.47.57c.73-.15,1.33.31,2,.27.87,0,1.71-.33,2.6-.32,3.36.06,6.73,0,10.09,0C360,475.11,360.67,475.32,361.29,474.88Zm7.8-5.14h.27a.79.79,0,0,1,0,.73h-.27A.79.79,0,0,1,369.09,469.74Zm-6.71,1.55c.31,0,.58-.12.84.09l-.68.4C362.32,471.72,362.33,471.56,362.38,471.29Zm-2.18.87c.1-.15.22-.16.39-.07l.06.37C360.28,472.63,360.17,472.49,360.2,472.16Zm7.9-35.92a1.94,1.94,0,0,1,0,1c-.28-.31.05-.81-.39-.9C367.82,436.17,367.94,436.16,368.1,436.25Zm-13.36,5.08a.18.18,0,0,1-.13-.23c-.11,0-.17,0-.19-.15s0-.08.06-.08a.18.18,0,0,1,.13.23c.11,0,.17,0,.19.15S354.76,441.33,354.74,441.32Zm.41-1.51c-.12-.22-.46-.33-.26-.67,0-.05.36.14.61.24Zm.83.22c-.13-.09-.06-.23-.08-.35.22-.2.43-.2.72.06C356.44,440.19,356.19,440.05,356,440Zm1.39-.06c-.08.15-.19.08-.34.11-.13-.43,0-.56.26-.53A.35.35,0,0,1,357.37,440Zm.46.74c.07-.12.14-.12.21,0S357.91,440.83,357.84,440.71Zm8.19-3.12c.07-.16.19-.08.29-.1a.34.34,0,0,1,0,.52C366,438,365.94,437.9,366,437.58Zm0,3.25h-.75c-.22-.36,0-.8-.11-1.14s-.36,0-.4-.35a1.26,1.26,0,0,1,.76,0A1.9,1.9,0,0,1,366,440.84ZM364.64,438c.18-.69-.26-.93-.13-1.35a.66.66,0,0,1,.43-.47c.37.12.46.45.42.93l-.42.41v1.11l-.55.63a.54.54,0,0,1-.7-.42C363.92,438.45,364.5,438.41,364.64,438Zm-5.5-1.83c.24.07.19.27.21.41s.11.13.15,0c.14-.25.42-.21.56-.6s.62-.39,1.35-.14c.2-.18-.05-.51.21-.75.6.24.88,1,1.37,1.41a1.57,1.57,0,0,1-.41,1.08c.37.4.62-.2.86-.05l.56.35a6.05,6.05,0,0,0-.87,1.39,2.17,2.17,0,0,0-1.14-.83c-.11-.25-.15-.55-.38-.71-.36.1-.39.54-.1,1.43.15.17.34,0,.5.09l.39.46a.89.89,0,0,1,.94-.16c.13.19,0,.4.06.61l-.38.45c0,.22.3.35.13.62-.36-.28-.77-.15-1.16-.19a1.68,1.68,0,0,0-.65-1c-.18-.05-.24.06-.37.21-.2-.3-.5-.22-.88-.23l-.65.78c-.41,0-.53-.31-.54-.75,0-.27.2-.38.34-.55s0-.49.19-.81c.16.32.21.7.45.8s.34-.19.48-.31,0-.15.05-.23c.06-.36-.06-.71.15-1.09a.91.91,0,0,0-.25-1.17c-.37.32-.58.85-1,1-.32-.28.12-.31-.05-.74l-.51-.47C358.85,436.43,358.94,436.17,359.14,436.18Zm-2.05.27h.5a1.88,1.88,0,0,1-.08,1.06,1.42,1.42,0,0,1-.77-.78C356.81,436.41,357,436.45,357.09,436.45Zm-6,20.11a.14.14,0,0,1,0,.25A.14.14,0,0,1,351.07,456.57Zm0,1.54c.18.19.12.33.07.51C350.86,458.5,350.93,458.33,351.06,458.1Zm1,5.19V464c-.26,0-.26-.3-.4-.31C351.58,463.3,351.71,463.23,352,463.29Zm-.09-24.51a.14.14,0,0,1,0,.25A.14.14,0,0,1,351.93,438.78Zm-.64,21.36c-.16.27,0,.59-.12.73-.7.39-.85-.85-1.55-.31l.11-.65a1.53,1.53,0,0,0,1.65-.6l.45.24C351.8,460.07,351.44,459.88,351.28,460.13Zm-.56,1.06v.67c-.09.18-.21.11-.3.12-.19-.2-.1-.45-.07-.68S350.54,461.22,350.73,461.19Zm0-8.62c-.07.12-.14.12-.21,0S350.67,452.45,350.74,452.57Zm-.32-4a.14.14,0,0,1,0-.25A.14.14,0,0,1,350.42,448.57Zm-.71-7.66c.36-.21.46.14.7.54l-.47.37A.79.79,0,0,1,349.71,440.9Zm.56,14.94a4,4,0,0,1,0,1.12l-.28.33c-.2-.12-.44-.43-.66,0-.44-.33-.36-.76-.32-1.18C349.42,456,349.76,455.65,350.27,455.85Zm-1.44-19.55a.24.24,0,0,1,.4,0c0,.39-.2.47-.4.83Zm.09,3.25a.14.14,0,0,1,0-.25A.14.14,0,0,1,348.92,439.54Zm.11,12c-.07.12-.14.12-.21,0S349,451.42,349,451.54Zm-.11,2.7a.35.35,0,0,1,0,.52A.35.35,0,0,1,348.92,454.24Zm-.11,4a.24.24,0,0,1-.36.08.79.79,0,0,1,0-.71A.63.63,0,0,1,348.81,458.24Zm-.27-13.35.07.43c-.11.17-.23.18-.47.06Zm-2,11.93a.14.14,0,0,1,0,.25A.14.14,0,0,1,346.55,456.82Zm-.32-17.92c-.07.12-.14.12-.21,0S346.16,438.78,346.23,438.9ZM346.12,472h-.53a.18.18,0,0,1-.13.23s-.07-.06-.06-.08.09-.17.19-.15c0-.22,0-.43,0-.64.21-.31.44-.56.81-.33A.79.79,0,0,1,346.12,472Zm.54-1.93c.07-.12.14-.12.21,0S346.73,470.22,346.66,470.1Zm.85,0,.37-.39.22.49C347.9,470.22,347.7,470.33,347.52,470.09Zm.32-1.16a.44.44,0,0,1,.06.51C347.64,469.32,347.7,469.15,347.84,468.93Zm.28-.15.45-.29v.35C348.44,469,348.32,469,348.12,468.78Zm.88,2.15-.43-1c-.08,0-.15,0-.17-.14s0-.08.06-.08a.18.18,0,0,1,.13.23c.24.12.4-.21.61-.2C349.34,470.19,348.95,470.35,349,470.93Zm.67-.31c.07-.12.14-.12.21,0S349.74,470.74,349.67,470.62Zm.62-.12c-.07,0-.17-.09-.17-.13a1.68,1.68,0,0,0-.66-1.61c-.25-.17-.34-.67-.55-1.11-.05-.05-.29.06-.36-.17a10.81,10.81,0,0,1-2,.44c-.22-.38,0-.51.19-.73h1.08l.64-.77s.06,0,.08,0c.23.15.23.65.38.68.33.06.43.4.66.55a2.34,2.34,0,0,0,.52-1.93c-.2-.35-.67-.38-.74-.89-.22-.1-.3.15-.44.24l-.31-.37v-1c-.29-.52-.84-.52-1.2-.92h-.85c-.23-.17,0-.64-.53-.65a5,5,0,0,0,.86-1.32,1.11,1.11,0,0,1,.79,0c.23.37-.22.51-.14.86l.21.27.58-.69.69.65c.05.34-.11.42-.24.62.44-.07.57.42.7.5.59.22.72-.24,1-.45.21.55.7.9.72,1.55s-.71.62-.95,1.18c.48.19.86.23,1.15-.28l-.21-.25c.16-.17.25-.43.62-.38a7.55,7.55,0,0,1-.85,2.8c.07.47.39.49.59.61l-.81,1-.38.05.41,1.1C350.71,470.25,350.55,470.44,350.29,470.49Zm-3.73-5.16c.36,0,.44.29.56.51-.13.45-.39.18-.63.3C346.46,465.78,346.36,465.53,346.55,465.33Zm1.27,0c-.22.06-.31-.15-.48-.33v-1.16c.35-.18.44.18.6.35a.38.38,0,0,1-.17.42C347.79,464.87,348.16,465.07,347.83,465.33Zm1.11.54h.22c.12.16.12.3,0,.54Zm2.51,5.87a1.88,1.88,0,0,1,0-1,.58.58,0,0,1,.38.47A.59.59,0,0,1,351.44,471.74Zm.48-4.6a.35.35,0,0,1,0-.52A.35.35,0,0,1,351.93,467.14Zm.13,4.29c.09-.28.23-.2.42,0C352.3,471.56,352.19,471.57,352.06,471.43Zm.94.6a.14.14,0,0,1,0-.25A.14.14,0,0,1,353,472Zm-.83-33.75c-.21-.2-.11-.38-.14-.54-.53-.27-.43-.77-.42-1.16-.19-.17-.51-.06-.44-.47s.36-.1.55-.16l.55.66c0,.37-.37.7-.18,1.2a1.3,1.3,0,0,1,.56-.07l.66-.82c.41.49.94.26,1.45.32l.16-.52a4.35,4.35,0,0,1,1.64.59v1h.31c.2.1,0,.42.24.5.34-.19.26-.76.61-1s.53,0,.74.31l-.36.84.4.48c-.25.21-.52.1-.78.1l-.41-.5h-.66c-.16-.27-.07-.53-.1-.77-.21-.06-.23.33-.44.26s-.14-.33-.26-.45a4.6,4.6,0,0,1-.38-.46c-.14-.21-.33-.07-.55-.16l-.54.79c-.48.07-.89-.13-1.23.32C352.84,438.37,352.52,438.07,352.17,438.28ZM355,472.42c.07-.12.14-.12.21,0S355.11,472.54,355,472.42Zm3.87-1.55c.07-.12.14-.12.21,0S359,471,358.91,470.87Zm1.27-.56c-.18.41-.44.53-.85.33C359.57,470.24,359.82,470.11,360.18,470.32Z"/><path d="M256.63,454a1.72,1.72,0,0,0-.06-.74,2,2,0,0,1-.12-1.59,7.52,7.52,0,0,0,.17-2.36c0-5,0-10.06,0-15.09l-.55-.64h-2.77c-1,0-1.94,0-2.9,0s-1.78-.53-2.68-.19a1.91,1.91,0,0,0-1,.89c.18,2.49-.12,5,.21,7.59a39,39,0,0,1-.17,5.82c-.06,3.18,0,6.36,0,9.54a12.56,12.56,0,0,1-.2,2.73c-.23,1.05-.76,1.95-1,3a13.21,13.21,0,0,1-2.3,2.35c-1.07.75-2.28.67-3.41,1-.31.09-.47-.29-.77-.27a3,3,0,0,1-2.21-.75c-.07-.06-.21,0-.33,0l-1-1.17a2.76,2.76,0,0,1-.88-1.77,2.84,2.84,0,0,0-.26-.63,10.28,10.28,0,0,1-.78-3.61c0-1.63,0-3.27,0-4.9a37.38,37.38,0,0,1,.17-4.8,21.63,21.63,0,0,0,0-3.73,13,13,0,0,0-.21-3.76c.12-1.42-.21-2.86.2-4.28.24-.81-.2-1.62-.23-2.44a1.86,1.86,0,0,0-1.74-.9c-1.47.05-2.94,0-4.4,0a1.46,1.46,0,0,1-.9-.27c-.7.47-1.39.15-1.94.25l-.71.68a16.32,16.32,0,0,0-.17,3.43c0,.75.28,1.44.23,2.22a42.26,42.26,0,0,1-.23,5.82q0,6.64,0,13.28a2.31,2.31,0,0,0,0,.76,7.85,7.85,0,0,1,.37,2.38c.05.84.54,1.52.46,2.36,0,.21.17.26.21.41a16,16,0,0,0,.92,2.38c.19.38.38.76.59,1.13a22.91,22.91,0,0,0,2.06,3.37c.27.34.64.48.91.8a9,9,0,0,0,3.65,2.5c.35.14.63.57,1,.5s.85.33,1.31.29a1.79,1.79,0,0,1,1.41.25c1-.17,1.93.37,2.92.27a9,9,0,0,1,2.25,0c1.35.21,2.58-.61,3.91-.54,0,0,.05-.06.08-.07a11.86,11.86,0,0,1,1.58-.71c.57-.1,1-.73,1.56-.77.95-.85,2.13-1.31,2.91-2.46.25-.37.68-.41.91-.81a13.21,13.21,0,0,1,.76-1.17,20.55,20.55,0,0,1,1.13-1.89c-.06-.66.37-1.11.54-1.67s.31-1.14.48-1.69a10.31,10.31,0,0,0,.46-2c.06-.7.18-1.39.21-2.08a14.75,14.75,0,0,0,.27-1.57C256.59,457.22,256.64,455.63,256.63,454Zm-30,1a.14.14,0,0,1,0-.25A.14.14,0,0,1,226.66,455Zm.13,2.75c.09-.28.23-.2.42,0C227,457.89,226.92,457.9,226.79,457.76Zm.84,4.09c.07-.12.14-.12.21,0S227.7,462,227.63,461.85Zm1.5-15c-.14.2-.29.19-.43,0v-.25a.23.23,0,0,1,.35-.1C229.18,446.63,229.12,446.77,229.13,446.89Zm1,1.43a.14.14,0,0,1,0,.25A.14.14,0,0,1,230.1,448.32Zm-.11,6.32c0-.2-.06-.42.07-.6l.2-.05c.26.09.12.54.39.65A.43.43,0,0,1,230,454.64ZM242.47,472a1.15,1.15,0,0,1,1.23,0Zm1.7-3.44c.07-.12.14-.12.21,0S244.24,468.67,244.17,468.55Zm.36,4c-.29-.08,0-.3-.08-.42A.26.26,0,0,1,244.53,472.51Zm3.08-.36c-.14.2-.29.19-.43,0v-.25a.23.23,0,0,1,.35-.1C247.66,471.9,247.59,472,247.61,472.16Zm-.79-3.58c.46.25.42.86.87,1C246.75,469.75,246.75,469.75,246.82,468.58Zm7.91-15.79c-.12.21.08.52-.2.73-.3-.28-.83-.25-.93-.94l1.72-.68C255.41,452.56,255,452.63,254.74,452.78Zm-.55,1.7h-.27a.79.79,0,0,1,0-.73h.27A.79.79,0,0,1,254.19,454.48Zm.51-5.26c-.07.12-.14.12-.21,0S254.63,449.1,254.7,449.22Zm-.4,1.78c.07-.16.19-.08.29-.1a.34.34,0,0,1,0,.52h-.21A.35.35,0,0,1,254.3,451Zm-.17-6c.29.08,0,.3.08.42A.26.26,0,0,1,254.13,445Zm-1.34,3.62h1v1.14c-.25.29-.36,0-.52-.14s-.35.07-.51-.11Zm-.06-1.51c-.11.22-.23.22-.36.09C252.44,446.85,252.61,447.16,252.72,447.11Zm0,6.23c-.07.12-.14.12-.21,0S252.69,453.22,252.76,453.34Zm-.54-3.26a.87.87,0,0,1,0,.84A.86.86,0,0,1,252.23,450.08Zm-.54,2c-.15.19-.29.19-.43,0C251.41,451.86,251.55,451.86,251.69,452.05Zm-1.44,6h-.42a.79.79,0,0,1,0-.73C250.43,457.3,250.07,457.81,250.26,458.09Zm-2.32,13.46c-.2-.34,0-.64-.18-1h.84c.18.19,0,.42.12.64Zm1.09-7c-.21.29-.54.3-.77.53a.18.18,0,0,1-.13.23s-.07-.06-.06-.08.09-.17.19-.15c0-.3,0-.59,0-.76l.29-.53c.35,0,.43.25.57.41A.55.55,0,0,1,249,464.54Zm.19-2.64a1.59,1.59,0,0,1,0,1.18A1.59,1.59,0,0,1,249.22,461.91Zm1.59,4.6-1,.41a7.8,7.8,0,0,0,0,.95l-.32.05a.74.74,0,0,1,.32-1.06c-.07-.34.14-.52.34-.74l.22.22c.14-.07.22-.33.43-.23S250.86,466.28,250.81,466.5Zm-1.17-4.06.73-.62.21.23C250.42,462.56,250.12,462.53,249.64,462.44Zm1.09.83a.14.14,0,0,1,0,.25A.14.14,0,0,1,250.72,463.27Zm.11-2.71c.21-.17.4-.19.7,0l-.43.31Zm.56,1.39.16.54C251.35,462.58,251.25,462.45,251.39,461.95Zm.73.93c.07-.12.14-.12.21,0S252.19,463,252.12,462.88Zm1.61.64a.14.14,0,0,1,0-.25A.14.14,0,0,1,253.73,463.52Zm.1-3.46.46.43c-.31.68-.84.38-1.24.47-.07.26.15.28.15.44,0,.34,0,.68,0,1-.19.21-.37.08-.55.12-.21-.38,0-.83-.14-1.22-.37-.26-.51-.53-.6-1.24l-.54-.63c-.67-.12-1.31.52-2,.18,0-.11-.05-.21,0-.26a3.6,3.6,0,0,1,.27-.41c.66-.12,1.37.16,2-.31.21.25.06.48.19.75a2,2,0,0,1,.94.41c0-.66.68-.82.45-1.58-.37-.33-.62-1-1.24-1.19v-1.35c-.67-.55-1.59-.36-2.14-1.28.36-.24.4-.78.73-1.12h.69c.21.39-.05.85.15,1.23a.24.24,0,0,0,.32-.05l.08-.65c.24-.05.24-.05.79.59,0,.19-.31.26-.11.62a.82.82,0,0,1,.87.81c.28-.14.32-.49.45-.74.32.18.28.66.53.89v1.42a.91.91,0,0,0,.56-.28c.21.49-.1.62-.35.79,0,.25.27.28.22.51-.07.55-.58.44-.77.79S253.89,459.72,253.83,460.06Zm-3.23-4.25c.43-.06.51.23.66.37a1.66,1.66,0,0,1-.55,1.21A6.54,6.54,0,0,1,250.6,455.81Zm1.4,2.29c.14.24.48.32.24.8C252.1,458.66,251.77,458.58,252,458.1Zm2.85,1.76a.26.26,0,0,1-.08-.42C255.06,459.52,254.8,459.73,254.85,459.86Zm.41-3.06H255a.79.79,0,0,1,0-.73h.27A.79.79,0,0,1,255.26,456.8Z"/><path d="M273.7,446.77c-.29.4.09.53.17.67l.46-.28C274.05,447,274,446.68,273.7,446.77Z"/><path d="M329.47,439.42c-.07-.12-.14-.12-.21,0S329.4,439.54,329.47,439.42Z"/><path d="M253.66,457.77c.14.1.19.35.43.34l.4-.26-.21-.52C254,457.29,253.77,457.43,253.66,457.77Z"/><path d="M174.38,474.47a9.5,9.5,0,0,0-.1-2.38c-.13-.39,0-.79-.14-1.1a3.65,3.65,0,0,1-.21-1.2c-.12-.91.29-1.72.24-2.62-.14-2.64.21-5.3-.22-7.94-.21-1.31.28-2.6.21-3.91,0-.38,0-.76,0-1.11.16-.15.25-.29.38-.35a1.1,1.1,0,0,1,.41,0c.13.67.67.91.9,1.41a16.69,16.69,0,0,0,1.87,2.95,46.05,46.05,0,0,1,2.62,4,22.4,22.4,0,0,0,1.95,3.3c.18.86.9,1.23,1.27,2a20.6,20.6,0,0,0,1.38,2.07,22.09,22.09,0,0,1,1.29,1.93c.33.62.55,1.29.88,1.91.63,1.2,1.33,2.08,2.66,2,2-.13,3.92.17,6.11-.43a2.18,2.18,0,0,0,1-2c.07-1.82-.05-3.64.17-5.48a42.35,42.35,0,0,0,0-5.06c0-1.64,0-3.29,0-4.93s0-3.3-.16-5a37.21,37.21,0,0,1,0-5.44,31.36,31.36,0,0,1,.18-5.35,10.69,10.69,0,0,0,0-2.59c0-.9.26-1.72.26-2.62s-.27-1.9-.28-2.86a5.88,5.88,0,0,0-1.12-.53,5.41,5.41,0,0,0-1.28-.07h-6.9l-.49.48a4.56,4.56,0,0,0-.32,2.81,10.78,10.78,0,0,1,.16,2.5,12.47,12.47,0,0,1-.18,3.41,7.86,7.86,0,0,0,0,1.55c0,.56.26,1,.24,1.58-.05,2.12,0,4.24,0,6.36,0,.94.39,1.8.28,2.39-.21.74-.5.76-.82.72l-.13-.18c-1-1.57-1.89-3.26-3-4.76a7.32,7.32,0,0,1-.84-1.13,26.64,26.64,0,0,0-1.63-2.69c-.73-1.2-1.5-2.39-2.25-3.58-1-1.64-2-3.34-3.14-4.89a33.83,33.83,0,0,0-3.32-4.31h-7.56a1.46,1.46,0,0,0-.5,1c.15,1.32-.58,2.59-.06,4a5.05,5.05,0,0,1,0,1.93,19,19,0,0,0,.26,2c0,1.12-.29,2.17-.25,3.27a15.34,15.34,0,0,1,0,1.95c-.07.7.28,1.28.24,2-.14,2.25.22,4.53-.23,6.77.16,3-.25,5.9-.22,8.85,0,.74,0,1.47,0,2.21a1.89,1.89,0,0,0,0,.64c.45,1.06.09,2.19.21,3.27a5,5,0,0,0-.21,2.23,2.09,2.09,0,0,0,1,2h.72c2.71-.1,5.43.25,8.16-.28Zm21-34a.24.24,0,0,1,.36-.09.8.8,0,0,1,0,.72A.67.67,0,0,1,195.36,440.48Zm-1.52,1c-.07.12-.14.12-.21,0S193.77,441.4,193.84,441.52Zm-.76-4.33c.13.8.13.8-.54.73A.68.68,0,0,1,193.08,437.2ZM190,443c.23.11.17.27,0,.51C189.92,443.28,189.91,443.13,190,443Zm-1.88,20a.78.78,0,0,1,0,.7c-.43.1-.49-.27-.61-.57C187.75,462.85,188,462.95,188.15,463Zm-.77,5,.15.19-.28.7c-.17,0-.35.08-.56-.12A6.14,6.14,0,0,1,187.38,468Zm-1.76-9.38c-.15.19-.29.19-.44,0C185.33,458.47,185.48,458.47,185.63,458.66Zm-.54,7.66a.35.35,0,0,1,0,.52A.35.35,0,0,1,185.08,466.32Zm-2.61-8.55c.27-.12.36.17.55.34-.13.22-.24.45-.59.41C182.38,458.21,182.3,458,182.47,457.77Zm-17.08,8.55a.35.35,0,0,1,0-.52A.35.35,0,0,1,165.39,466.32Zm11.47-14.53a.44.44,0,0,1-.06-.51C177.06,451.4,177,451.56,176.86,451.79Zm-1-.11c-.34-.64.07-1.24-.44-1.61a2.38,2.38,0,0,1,1.89-.58A6.73,6.73,0,0,0,175.85,451.68Zm-.39-2.61c.1-.21.22-.13.32-.15a.34.34,0,0,1,0,.52C175.49,449.48,175.41,449.32,175.46,449.07Zm2.38,1c.07-.12.14-.12.21,0S177.91,450.21,177.84,450.09Zm2.27,2.46a.44.44,0,0,1,.06.51C179.9,452.94,180,452.77,180.1,452.54Zm-1-.82c.07.45-.23.73-.37,1.13l-.71-.42c-.12-.66.3-.89.59-1.19C178.92,451.29,179,451.51,179.13,451.72Zm-.54-1.76a.15.15,0,0,1,0,.26A.15.15,0,0,1,178.59,450Zm-2.29-6.49v.39c-.09.18-.21.11-.33.13C175.81,443.66,175.82,443.45,176.3,443.47Zm.45,1.68c0,.21.06.43-.11.66-.46,0-.55-.55-1-.84C176.32,444.62,176.44,445.18,176.75,445.15Zm-2.89-3.54c.18.51-.12.61-.25.83C173.32,442,173.69,441.88,173.86,441.61Zm-.9-1.77c.29,0,.37.12.32.37s-.22.13-.32.15A.34.34,0,0,1,173,439.83Zm-.32,1.17a.24.24,0,0,1,.36-.09.8.8,0,0,1,0,.72A.67.67,0,0,1,172.64,441Zm-.1,1.7a.38.38,0,0,1,0-.51C172.74,442.3,172.67,442.47,172.54,442.71Zm-.71-4.4.57.33c.1.12,0,.34,0,.6-.47.17-.74,0-.88-.4S171.78,438.5,171.83,438.31Zm.16,4.51c-.07.12-.14.12-.21,0S171.92,442.7,172,442.82Zm-.65,2.8c0,.23-.24.4-.58.47-.21-.57.44-.59.29-1.11Zm-.86-2.8c-.07.12-.14.12-.21,0S170.4,442.7,170.47,442.82Zm-.61,1.54c.32-.08.61-.6,1.09-.25-.11.58-.44.3-.61.43s-.16.59-.48.76Zm-.79-2.21c.19.33.55.48.57,1-.32-.08-.54-.42-.81-.2C168.63,442.55,168.88,442.43,169.07,442.15Zm-1.3,0a.15.15,0,0,1,0,.26A.15.15,0,0,1,167.77,442.17Zm-.06,3.26-.47.26-.23-.28A.5.5,0,0,1,167.71,445.43Zm-.42.66c.37-.09.41.27.59.33v.68a3.18,3.18,0,0,0,.58,0c.09.23.14.41-.11.49s-.4-.23-.47-.49c-.5,0-.6-.46-.88-.67ZM165.8,469.4c-.13-.09-.06-.23-.08-.35.22-.21.43-.2.73.06C166.26,469.56,166,469.42,165.8,469.4ZM167.47,451c.4-.07.54.35.83.35-.48.6-.48.6-1,.61A1.51,1.51,0,0,0,167.47,451Zm1,6.47c-.19-.17-.38-.3-.35-.64a.24.24,0,0,1,.36-.1A.82.82,0,0,1,168.45,457.48Zm.94-5.85c.21-.18.28-.42.53-.36s.14.76-.38,1.3C169.28,452.32,169.45,452,169.39,451.63Zm.14,14.53a3.46,3.46,0,0,1-.13-1.26l.65.65C170,465.86,169.78,466,169.52,466.16Zm.32-6.38,0-.47-.35,0c-.1-.19-.11-.33,0-.47a.67.67,0,0,1,.35.5c.21,0,.31.21.41.41C170.13,459.88,170,459.83,169.85,459.77Zm2.14-9.6v1.74c-.25.3-.54,0-.8.16-.1-.52.47,0,.34-.51s-.52-.6-.62-1.06c.05-.31.39-.54,0-1.14,0,0-.21.09-.41.14-.29.21-.23.71-.55.9-.83.4-1.62-.48-2.46-.1-.06.4-.37.65-.61,1l-.25-.27a3.46,3.46,0,0,0-.06-2.19.87.87,0,0,1,.05-.84c.21-.25.07-.57.15-.76.35-.2.44.13.59.24.26.75-.27,1.24-.39,1.86.55.39,1.1.69,1.7.16.25-.09.3.41.6.24.13-.26-.26-.43-.13-.71s.19-.51.29-.79a1.77,1.77,0,0,0,.89-.34l.66.95c.39-.54,1-.24,1.34-.62.29.26.34.7.49,1Zm1.7-3.41a.62.62,0,0,1-.79.31v-1c-.14-.41-.48-.18-.55-.51a.69.69,0,0,0-.33.38l.45.54a3.15,3.15,0,0,0-2.21,1.19c-.33-.25-.13-.56-.3-.86a1.83,1.83,0,0,1-1.5-.45,1.74,1.74,0,0,0,1-.38c.55.18,1,.76,1.6.53a4.56,4.56,0,0,0,1.14-1.94l-.61-.73c.31-.5.37-.5,1.16-.14l.22-.24a2.25,2.25,0,0,0,1,.54c.71-.49,1-1.35,1.64-1.89.07,1.13-.85,1.51-1,2.33a.37.37,0,0,1-.48-.18l-.55.31v.85l.64.6h.74l.41-.5c.35.3.56.84,1.32.9.4-.08,1-1.21,1.81-.34v1.4c-.53.43-.72-.34-1-.45-.51.28-.12.48-.1.52l-.26.56c-.35-.05-.43-.4-.64-.53s-.28.06-.37.2c-.24-.09-.46-.35-.74-.15-.08.24.32.35.09.68h-1l-.24-.32c-.33-.29-.65,0-.89-.26a1.8,1.8,0,0,0,.9-1C174,446.49,173.8,446.56,173.69,446.76Zm.44-1.63.45-.19C174.68,445.19,174.53,445.29,174.13,445.13Zm-.59,3.36c.07-.14.19-.07.28-.09s.14.26,0,.51A.67.67,0,0,1,173.54,448.49Z"/><path d="M135,475.67c.11,0,.26-.05.32,0,.39.5.89.2,1.33.23s.84.31,1.32.3c1.69-.06,3.39,0,5.08,0,.22,0,.46.08.64,0,1-.5,2.17-.58,3.22-1a13.62,13.62,0,0,0,3.64-2.26,12.66,12.66,0,0,0,2.46-2.59,7.2,7.2,0,0,0,1.13-1.91c.21-.72.55-1.36.79-2.07a9.25,9.25,0,0,1,.84-2.26c-.17-.74.36-1.46.21-2.28.39-.36.13-.88.22-1.32a6.39,6.39,0,0,0,.23-1.32,5.83,5.83,0,0,1,.19-2.49.67.67,0,0,0,0-.5,2.5,2.5,0,0,1-.2-1.59c.09-2.6-.24-5.22.21-7.81-.1-2.13.06-4.25-.17-6.39a59.54,59.54,0,0,1-.05-6.22.89.89,0,0,0-.06-.23c-.19-.32-.52-.38-.78-.57a19.94,19.94,0,0,0-2.81,0,3.84,3.84,0,0,1-1.74.18,3.43,3.43,0,0,0-1.11-.22h-2.75c0,.44-.36.12-.57.61a2.53,2.53,0,0,0-.13,1.21c0,.65,0,1.3,0,1.95s.25,1.28.23,2c-.05,2.12,0,4.24,0,6.36a44.28,44.28,0,0,1-.18,6.26,13.92,13.92,0,0,0,.16,2.88,13.34,13.34,0,0,1-.17,4.18c-.24.92-.3,1.88-.62,2.81a6.55,6.55,0,0,1-2.68,3.73,6.85,6.85,0,0,1-3,1,5,5,0,0,1-2.08-.21,5.2,5.2,0,0,1-3.66-3.41,12.68,12.68,0,0,1-.69-2,19.73,19.73,0,0,1-.45-3.92,33.78,33.78,0,0,1,.2-6.25c0-5,0-10,0-15.06a2.74,2.74,0,0,0-.8-2.13c-.7.25-1.39-.26-2.13-.25s-1.59,0-2.38,0h-3.9l-.76.91v9.61c0,2.12,0,4.24,0,6.36a34.55,34.55,0,0,1-.21,6.38c-.11.54.23.95.23,1.45a18.31,18.31,0,0,0,.38,4.47,27.39,27.39,0,0,0,1.09,3.88,28.38,28.38,0,0,0,2.27,4.34,14.07,14.07,0,0,0,2.44,2.64,9.29,9.29,0,0,0,2.38,1.57A5.87,5.87,0,0,0,135,475.67Zm12.42-3.07c-.33-.14-.52-.29-.52-.63s.37-.11.55-.19A.71.71,0,0,1,147.41,472.59Zm1.62-4.87.45-.19C149.6,467.8,149.42,467.86,149,467.72Zm.56-.62c-.17-.23-.07-.45-.12-.72H151C150.38,466.66,149.9,466.67,149.59,467.1Zm.78-5.21a.79.79,0,0,1-.68.85C149.72,462.18,149.87,461.92,150.37,461.89Zm-.24-.9c.15-.19.29-.19.44,0C150.43,461.18,150.28,461.18,150.13,461Zm.91,1.41L151,462c.29-.2.47-.2.45.38Zm-.24-1.64v-.32c.13-.15.25-.14.47.06Zm3.66-1.07c.07-.12.14-.12.21,0S154.54,459.82,154.47,459.7Zm.78-7.37c-.12.26-.58.21-.77.61l.19.27c-.22.32-.92.06-1.49-.58a4.88,4.88,0,0,0,1.81-.94Zm-1.25,2c-.07.15-.19.08-.29.1a.34.34,0,0,1,0-.52h.21A.35.35,0,0,1,154,454.28Zm.29-3.05-.07-.46h.49C154.59,451,154.5,451.15,154.29,451.22Zm.09-2.33.21.52C154.33,449.53,154.23,449.37,154.38,448.89Zm-.15-4v.32c-.13.15-.25.14-.47-.06Zm-1.43,3.57h.94c.16.37,0,.78.08,1.15a.91.91,0,0,1-.64.1l-.66-.6C152.48,448.7,152.69,448.63,152.81,448.43Zm0,5.42a.15.15,0,0,1,0-.26A.15.15,0,0,1,152.84,453.85Zm-.7-1.5c.22.12.16.27.11.43C151.93,452.7,152.2,452.48,152.14,452.35Zm-.48-.45a.44.44,0,0,1-.67,0A.44.44,0,0,1,151.66,451.91Zm-1.31-6c-.07.12-.14.12-.21,0S150.28,445.81,150.35,445.93Zm-.71,12.86c.31-.08.53.18.68.26.57,0,.85-.6,1.33-.53,0-.44,0-.44.36-.48.13.13,0,.32.07.48.26.15.27.32.13.5-.23-.1-.09-.33-.16-.64a.44.44,0,0,1-.4.14v.65a1.37,1.37,0,0,1,.74.65,2.12,2.12,0,0,0,.55-1.67c-.26-.41-.68-.67-.74-1.17-.27-.06-.33.13-.5.28-.06-.44-.18-.83.13-1.18,0-.18-.27-.27-.19-.52-.54-.59-1.42-.26-1.92-1.06V454c.45,0,.36-.65.87-.84h.55c0,.26-.2.44-.17.74s.49.34.27.82c.21-.39.15-.86.52-1.06l.51.65-.19.24c.27.51.83.64,1,1.19.49-.08.08-.66.4-.8h.21a2,2,0,0,0,.53,1.16v1.16h.33c.24-.28,0-.66.14-1s.34,0,.51-.07.11.15,0,.18c-.49.22-.39.86-.58,1.27-.33.72-.74,1.36-1.1,2,0,0,0,.08,0,.14,0,.27.26.37.42.65l-.64.36.17.2c-.24.21-.57-.08-.81.19.22.31.57.54.38,1.12-.09.14-.39,0-.48.3-.38-.3-.39-.44-.14-1.13-.13-.24-.28-.46-.55-.46-.29-.65-.26-1.57-1.17-1.74a2,2,0,0,1-1.47.2C149.21,459.07,149.46,459,149.64,458.79Zm-.17-1.18.34-.34a.68.68,0,0,1,.32.65C149.76,458.16,149.67,457.77,149.47,457.62Zm.91-1.6.24-.29c.18,0,.24.23.37.34a2.88,2.88,0,0,1-.43,1.22C150,456.87,150.74,456.38,150.39,456Zm-1.18,5.89a2.22,2.22,0,0,1,0,1.2l-.18-.73C148.81,462.22,149,462.07,149.21,461.91Zm-.53,1.77c.28.28.1.64.18,1-.44,0-.56.4-.87.47C148.24,464.71,148,463.94,148.68,463.68Zm-.89,6.75a.74.74,0,0,1,.6,1c-.18.21-.38.12-.6.06Zm-1.07-1.75c.41.16.36.81.83.85l-.29.35c-.2,0-.3-.32-.54-.22A1.92,1.92,0,0,1,146.73,468.68ZM144.21,472l.21.51C144.12,472.68,144.08,472.45,144.21,472Zm-.55-3.51c.13-.15.25-.14.47.06l-.47.26ZM127,457.91a.49.49,0,0,1-.61,0v-.32a.49.49,0,0,1,.61,0Zm1.64-10.8a.35.35,0,0,1,0-.52A.35.35,0,0,1,128.61,447.11Zm1.56,7.74c-.56-.16-.56-.17-.51-1.05C130.19,454.21,130.19,454.21,130.16,454.84Zm0-5.69a.18.18,0,0,1-.13-.23c-.21,0-.31-.22-.41-.43.11-.14.23-.13.39,0l0,.44c.1,0,.16,0,.19.15S130.16,449.16,130.14,449.15Z"/><path d="M90.42,457.9c-.11,2.47.23,5-.22,7.42a60.39,60.39,0,0,0,.18,6.65,23.41,23.41,0,0,0,.34,3.19c.43-.21.79.27,1.25.25s.94,0,1.41,0a15,15,0,0,1,2.4-.27c1.15.07,2.31,0,3.46,0a.87.87,0,0,0,.2,0l.49-.59c-.11-.45.25-.78.24-1.27,0-1.21,0-2.42,0-3.63a27.66,27.66,0,0,1,.18-3.4,29.27,29.27,0,0,0,0-3.63v-1.39a5.14,5.14,0,0,1,2.35-.59,27.42,27.42,0,0,1,4.14.21,4.36,4.36,0,0,0,2.72-.18,2.79,2.79,0,0,1,1.29,0c.41,0,.83-.12,1.24.16s.84,0,1.26.1c.09,0,.17.17.26.19.8.1,1.61.28,2.26-.51a8.26,8.26,0,0,0,.28-2.21,18.89,18.89,0,0,1,0-3.24,8.7,8.7,0,0,0,0-2.53,3.23,3.23,0,0,0-.8-1.84c-.64,0-1.29,0-1.93,0s-1.21.31-1.86.3c-2.59-.07-5.19,0-7.79,0-1,0-1.94.51-3,.21-.17-.26-.58-.22-.72-.62,0-1.85,0-3.71,0-5.57a3.64,3.64,0,0,1,.52-1.83c1.11.16,2.2-.13,3.3.25.73.26,1.52-.18,2.28-.2,2.49-.06,5,0,7.46,0,.27,0,.58-.16.79.21.86,0,1.76.3,2.5-.57,0-.27,0-.64.07-.84a2,2,0,0,0,.13-1.6,9.65,9.65,0,0,1-.17-2.63c0-1.21,0-2.42,0-3.63a1.43,1.43,0,0,0-.07-.28l-.68-.49c-1.13-.19-2.21.22-3.24-.29-.19-.09-.51-.12-.63,0-.35.4-.75.23-1.12.23H91.4c-.17,0-.36-.09-.45,0l-.33.4c.19.61-.21,1.15-.2,1.78,0,1.21,0,2.42,0,3.63s-.06,2.51,0,3.76-.26,2.34-.24,3.53c0,1.9,0,3.81,0,5.71A30.06,30.06,0,0,0,90.42,457.9ZM105.7,438c.7,0,.34.91.85,1.28H105.4C105.32,438.79,105.23,438.31,105.7,438ZM93.84,461.64c-.25-.17-.43-.32-.39-.65.11-.15.23-.16.39-.06Zm-.18-3.51c.07.33-.2.42-.32.73a3.3,3.3,0,0,1-.1-1.23l.31-.41c.46-.06.73.26,1.1.45C94.3,458.23,93.9,457.8,93.66,458.14Zm-.32-3.5a.15.15,0,0,1,0,.26A.15.15,0,0,1,93.34,454.64Zm.38-4.42c.13,0,.21,0,.26,0a4.2,4.2,0,0,1,.36.28c-.06.59-.42.7-.63,1.24A5.43,5.43,0,0,1,93.71,450.22Zm1,6.61-.62-.55a4.75,4.75,0,0,1,.22-2.25c-.09-.22-.27-.13-.38-.21-.31-.7.32-1.26.14-1.92.37-.19.68-.5,1.09-.36v.89a1.23,1.23,0,0,0-.65,1.24c.21.3.54.58.62.95s.44,1,.06,1.62a1.75,1.75,0,0,0-.25,1.3C94.65,457.35,94.78,457.11,94.72,456.83Zm.56-3.77c.14.21.15.36,0,.51C95.08,453.46,95.14,453.29,95.28,453.06Zm0,16.36a.71.71,0,0,1-.34-.74h.34A.81.81,0,0,1,95.31,469.41Zm-.14-17.9v-.64a.82.82,0,0,0-.63-.46c-.08-.48.41-.57.24-1.06a.88.88,0,0,0,1.33.06c.23.23.09.46.19.72l-.68.74a.5.5,0,0,0,.22.52C95.6,451.6,95.38,451.48,95.18,451.52Zm1.5-.64c-.09.18-.21.11-.33.13-.16-.33-.16-.54.33-.52Zm-.06,1.66h-.27a.79.79,0,0,1,0-.74h.27A.79.79,0,0,1,96.61,452.53Zm-.72,1.32c-.18-.46.14-.56.26-.78l.3.37C96.34,453.67,96.21,453.89,95.89,453.85Zm1,11.3a.24.24,0,0,1-.35.09c-.13-.09-.07-.23-.09-.41C96.83,464.68,96.93,464.82,96.91,465.15ZM97,449.7a.15.15,0,0,1,0-.26A.15.15,0,0,1,97,449.7Zm.41,4.4.27-.71.09.59C97.63,454.17,97.48,454.17,97.42,454.09Zm4.9-14.65c.07-.12.14-.12.21,0S102.39,439.56,102.32,439.44Zm-1.63-3.29c.33.15.55.3.55.75-.44.24-.56-.35-.78-.31Zm-1-.37.59.33-.49.1C99.67,436,99.67,435.85,99.74,435.78Zm.09,2.24a.15.15,0,0,1,0-.26A.15.15,0,0,1,99.83,438Zm-.61-1.88-.28.36a3.65,3.65,0,0,1-.3-1.29Zm-1.57.05c.21.25,0,.51.06.74A.61.61,0,0,1,97.65,436.19Zm-.5,2.44c.15-.18.34,0,.51-.09a.38.38,0,0,0,.11-.35c.39-.38,1.07-.36,1.15-1.17.22,0,.43-.1.58.08,0,.18,0,.38-.09.38-.31,0-.39.29-.53.4-.1.43.43.47.19.82.21.14.43.08.53.37a4,4,0,0,0,1-1.53l.7,0c.7-.47.33-1.54.93-2.09a2,2,0,0,1,.93.67v.52c-.22.35-.62-.07-.86.26.19.18.27.55.52.41l-.52.63-.08-.09c-.38.19-.36.71-.59,1l.2.32-.68.65h-.47l-.46-.49c0,.14-.09.22-.07.29.08.35.37.49.58.8h.71c-.18.54-1.68,0-2.48-.82l-.47.53c-.5-.12-.63-.68-.84-1-.25-.05-.32.13-.42.23C97,439.11,97.15,438.86,97.16,438.62Zm-.36-2.43a.35.35,0,0,1,0,.52A.35.35,0,0,1,96.8,436.2Zm-.56,2.1c.21.09.31-.47.61-.23.12.08,0,.22.07.36-.29.24-.72-.06-.87.44-.4-.34-.6-.64-.31-1.17Zm-1-3.18c.09.1.28,0,.35.25,0,.1,0,.27-.21.32s-.42-.43-.68-.69C95,434.82,95.13,435,95.26,435.12Zm-.6,4a.8.8,0,0,1,0,.71.24.24,0,0,1-.36-.08A.65.65,0,0,1,94.66,439.08Zm-1.42-2a.49.49,0,0,1,.61,0v.32a.49.49,0,0,1-.61,0Zm.52,1.46a.35.35,0,0,1,0-.52A.35.35,0,0,1,93.77,438.54Zm-.45,4.95c.44-.17.65.22,1,.63V442.8c.36-.3.47.27.81.12a1.07,1.07,0,0,0-.23-1.22H93.34c-.1-.78-.1-.78.53-1.12.32.28.64.65,1.16.59.25,0,.38.63.77.49,0-.39,0-.78,0-1.18a1.46,1.46,0,0,0,.73-.61h.75c0,.14.05.29,0,.37s-.2.36-.29.35c-.68-.09-.79.47-.82,1.07h-.38c.18.78-.47,1.43-.17,2.15a3.34,3.34,0,0,0-.61,1c-.13.34-.58.27-.73.66l.3.35h.9c.49-.38.15-1.26.75-1.36,0-.55-.53-.61-.4-1.19.41.06.87-.29,1.15.2.34.12.44-.55.74-.12.14.48-.38.55-.42.92,0,.22.17.26.22.42-.18.39-.63.36-.86.8.28.91-.4,1.71-.43,2.67.4-.11.37-.52.56-.78a1.76,1.76,0,0,0,.54.94l-.62.57-.27-.46h-.93a2,2,0,0,0,.24-1.49c-.36-.31-.62.29-.92.19s0-.57-.26-.81c-.3.35-.83.16-1.12.66a2.28,2.28,0,0,0,1.23,1,1.43,1.43,0,0,1,0,.72,1,1,0,0,0-1-.26c-.19.09,0,.73-.45.46a.64.64,0,0,1,.2-.91l-.78-.8a6.51,6.51,0,0,1,.29-1.7c-.12-.39-.48,0-.66-.35C92.46,444.41,93.25,444.22,93.32,443.49Z"/><path d="M153.59,458c.49-.05.68-.3.66-.8C153.83,457.21,153.63,457.44,153.59,458Z"/><path d="M370.62,483.49c-.08-1.59-.32-2-1.69-2-2.29-.07-4.57-.07-6.86-.06-1.35,0-1.64.35-1.6,2,.06,2.65-.07,5.31,0,7.94.14,3.45-.33,6.93.33,10.35.08.39.15.92-.25,1.15s-.73-.23-1-.58q-1.85-2.83-3.66-5.69c-2.58-4.1-5.16-8.19-7.84-12.19-1.46-2.17-3.06-3.19-5.38-2.8-1.26.21-2.56-.31-3.85,0-.47.13-.91.26-1,1a18.32,18.32,0,0,0-.22,3.06c.47,4.74.2,9.49.23,14.22,0,7-.19,13.92-.31,20.87,0,1.86.43,2.49,2,2.5s3.36,0,5-.09a17.35,17.35,0,0,0,2.14-.12,1.39,1.39,0,0,0,1.14-1.8c-.62-3.44-.12-6.91-.27-9.86,0-3,0-5.46,0-7.94,0-.49-.12-1.15.36-1.37s.76.47,1,.87c2.86,4,5.3,8.48,8,12.64a34.45,34.45,0,0,1,3.61,6,2.32,2.32,0,0,0,2.16,1.63c1.82,0,3.65,0,5.47-.17a2,2,0,0,0,1.9-2.3c-.09-3.64.33-7.25.27-10.89-.11-6.92-.48-13.84-.15-20.77C370.49,487.25,370.71,485.38,370.62,483.49Zm-20.86,8.32s.07.1.11.16l-.15.14-.15-.25C349.64,491.85,349.71,491.8,349.76,491.82Zm.32,2c-.57-.16-.59-.57-.67-1C350,492.86,350.13,493.18,350.08,493.86Zm-3.38-5.6a1.12,1.12,0,0,1,.1.15l-.08.06-.1-.15S346.69,488.26,346.7,488.26Zm-.42,1c.06-.12.18-.14.25,0a.45.45,0,0,1-.06.53A.35.35,0,0,1,346.28,489.22Zm-.25,1.21c0,.07,0,.15,0,.22l-.08,0a2.05,2.05,0,0,1,0-.22S346,490.44,346,490.43Zm-.71-3.6c.32-.08.58,0,.62.42,0,.15-.1.35-.27.32C345.31,487.51,345.21,487.25,345.32,486.83Zm.14,4.32-.08,0,.08,0Zm-.71,1.14-1.21,1C343.55,492.47,343.86,492.17,344.76,492.29Zm0,1.47c-.09.12-.14.25-.21.28s-.23-.11-.2-.27a.29.29,0,0,1,.19-.21C344.63,493.56,344.7,493.68,344.79,493.76Zm-1.66-2.61c-.48.18-.63-.05-.68-.58C342.93,490.44,343.05,490.71,343.13,491.15Zm-1.26,4.29.11.1s-.05.07-.06.06a.79.79,0,0,1-.12-.1Zm-1-1.82s.07,0,.08,0a1,1,0,0,1,.06.16l-.16,0A1,1,0,0,1,340.87,493.62Zm.53,1a.31.31,0,0,1-.1.42c-.35.22-.47-.1-.63-.44C341,494.29,341.23,494.36,341.41,494.61ZM340,517a.51.51,0,0,1-.3.28.23.23,0,0,1-.28-.25c0-.24.18-.32.36-.34S340,516.83,340,517Zm.31-17.66a3.62,3.62,0,0,0,0-2.12,1.84,1.84,0,0,1,.41-1.87c.7.83.22,1.35-.14,1.82.14.53.69.41.81,1A3.83,3.83,0,0,1,340.27,499.36Zm.86.87c-.06-.16-.15-.28-.14-.36.1-.54.32-.81.82-.36C341.66,500,341.4,500.06,341.13,500.23Zm.78,5a.31.31,0,0,1-.2-.21.29.29,0,0,1,.16-.22c.07,0,.15.1.35.27C342.08,505.18,342,505.28,341.91,505.27Zm.07-3.89c.4-.14.65-.19.91,0C342.62,501.6,342.37,501.56,342,501.38Zm1.31,12.44c-.2,0-.34-.11-.37-.34s0-.53.29-.52.31.18.32.42S343.51,513.79,343.29,513.82Zm.29-14.35a1,1,0,0,1-.29,1.08C342.95,499.84,342.95,499.84,343.58,499.47Zm0,7.84v0l-.06,0Zm0,0c.06.12.12.25.2.41C343.51,507.72,343.6,507.52,343.64,507.36Zm1.7-7.25c-.2-.83-1.09-1.33-.51-2.64-1.07.51-1.9,1.86-2.92.58.25-.61.76-.27,1.06-.54l0,.06.06,0,0,0h0l0,0c-.19-1,.34-1.79,1-1.34s1.41.21,2.2.32C346.52,497.93,345.21,498.78,345.34,500.11Zm2.19-3.06c-.06,0-.15-.06-.17-.11s0-.14.05-.22.15.05.17.1S347.55,497,347.53,497Zm1.86,2.54c-.24-.81-.33-1.43.2-2h0l1,.1Zm-.26-2.27c.33-.3.35.09.45.28C349.38,497.64,349.2,497.64,349.12,497.31Zm.91-1.47c-.35-.43-.75-.05-1,.07-1.24.71-1.33.69-1.56-1-.75.21.31,1.07-.34,1.27-.71-.51-.38-1.86-1.11-2.34-.56.22-.21.62-.29,1a2.32,2.32,0,0,0-1.79,1c-.44-.32-.55-1.15-1.21-.95,0-.73.25-.81.7-.55s.76,1,1.29.25,1.26-1.37.62-2.51c0,0,0-.15,0-.23,1.27-.22,2.95,1.22,3.62-1.52-.19,1.57-.77,2.46-2,2.48,0,.61.25,1.19.57,1.22,1,.08,2,.56,3,.27.4-.11.86-.65,1.16-.14a1.47,1.47,0,0,1-.06,1.76l-.8-.75C350.75,495.7,351,497,350,495.85Zm-1.77-2.53a.19.19,0,0,1-.12.14s-.09-.08-.13-.13l.14-.18C348.19,493.2,348.26,493.26,348.26,493.32Zm3.91,7.55c-.41-.11-.53-.45-.76-.88.45-.21.75-.79,1.1-.31S352.44,500.53,352.17,500.86Zm4,5.39L356,506c.06,0,.14-.06.18,0s.06.13.08.21Zm4.48,10.51c-.34,0-.24-.29-.1-.5s.17-.07.25-.1C360.95,516.49,360.8,516.76,360.61,516.76Zm.8-5.21a.26.26,0,0,1-.23-.34.29.29,0,0,1,.21-.18c.15,0,.24.12.23.37C361.57,511.44,361.49,511.55,361.41,511.55Zm2.24,7.89s0,0-.07-.06l.13-.08,0,.1S363.68,519.44,363.65,519.44Zm2.24-33.23c.06-.47.24-.65.71-.48C366.49,486.32,366.25,486.38,365.89,486.21Zm3.08,2.84-.12-.26c.06,0,.12-.08.17-.06s.05.12.08.18Z"/><path d="M289.37,508.92c-.43-.71-.51-1.1.33-1.47a10.15,10.15,0,0,0,5.4-6.08,15.42,15.42,0,0,0-1.42-14.12,11.35,11.35,0,0,0-8.7-5.56c-4.66-.55-9.36,0-14-.35h-2.57c-2.64,0-2.85.28-2.73,3.46.27,6.83-.22,13.66-.16,20.5.05,5.34.37,10.67-.07,16a1.34,1.34,0,0,0,1.34,1.67c2.57.3,5.14-.12,7.71.11.76.07,1.11-.48,1.11-1.35,0-1.37,0-2.74-.06-4.1a48.18,48.18,0,0,1-.11-6.91c.07-.59.16-1.09.69-1.31a3.48,3.48,0,0,1,3.47,1.25q3.37,5.62,6.7,11.28a1.87,1.87,0,0,0,1.87,1.17c2.68-.26,5.36.07,8,0,.53,0,1.16.1,1.43-.59s-.28-1.09-.59-1.53C294.27,517.13,291.84,513,289.37,508.92Zm-16.21-6.15.12.33-1,1.56-1.46-1.13C271.75,503.25,272.55,503.59,273.16,502.77ZM272,505.66c-.07,0-.16,0-.19,0a.5.5,0,0,1,.14-.84A.7.7,0,0,1,272,505.66Zm.64-5.65.17.07c0,.06,0,.16-.09.18s-.11,0-.17-.07Zm-.24,2s0,0-.07-.06h.15S272.42,502,272.39,502Zm0-6.07,0,.09,0-.1Zm-.94,3.32c.75.14.37.8.35,1.54-.53-.29-1.2,0-1.16-.94A.62.62,0,0,1,271.45,499.21Zm-1-1.64.12.16-.19.18a.54.54,0,0,1-.06-.2S270.4,497.63,270.46,497.57Zm-1.24,5c.11,0,.19.07.15.27-.07,0-.16.09-.23.06s-.06-.17-.09-.26A.5.5,0,0,1,269.22,502.59Zm-1,15.43c-.44-.14-.46-.55-.49-1.09C268.5,517.13,268.5,517.13,268.17,518Zm.68-3c-.17,0-.24-.19-.21-.34a.52.52,0,0,1,.25-.34c.11,0,.27,0,.26.26S269.06,515,268.86,515Zm-.28-1.86c.05-.08.1-.22.17-.23a.26.26,0,0,1,.22.14c.06.15-.05.19-.19.24Zm.72-.77a.52.52,0,0,1-.06-.2s.09-.07.14-.1l.13.13Zm.81,2.06c-.24-.24-.3-.41-.18-.61s.18-.11.25,0S270.23,514.17,270.1,514.43Zm.75-.12-.07-.06.09-.14,0,.1Zm.56-.59c-.32,0-.42-.28-.4-.61a.29.29,0,0,1,.38-.3.47.47,0,0,1,.38.45C271.73,513.57,271.62,513.72,271.41,513.72ZM270,511.61a.91.91,0,0,0-1.11-.47c-.48.13-.93.48-1.58.23.42-1.42,1.83-.12,2.16-1.36.15.08.24.1.27.16.2.48.44.88,1,.85.32,0,.39-.35.44-.63a1.56,1.56,0,0,0-.62-1.75c-.7-.28-.84-.79-.93-1.48s-.67-.72-1.07-.89-1.1-.24-.91-1.07c.15-.65.42-1.43,1.28-1.14.22.41-.26,1,.26,1.35.49,0,.22-.67.53-.85.63.24.27,1.22.69,1.48s.81,1.11,1.28.12c1,.93,1.06,1.81,0,2.58.27.67.81.16,1.14.63-.2.69-1,1.44-.09,2.22C271.64,512.91,270.84,512.92,270,511.61ZM267.79,509c.25.08.33.28.2.55,0,.06-.22.11-.25.07A.37.37,0,0,1,267.79,509Zm.58-1.53c.79.15.79.16.18,1.3C268.29,508.34,268.42,507.87,268.37,507.45Zm1.65,2a.24.24,0,0,1,.1,0s0,.06,0,.09l-.09,0Zm2.72,4.88a1.16,1.16,0,0,1-.2-.23.25.25,0,0,1,.09-.19c.14-.05.18.07.19.22Zm.3-3.45s0-.06-.07-.09a1,1,0,0,1,.18-.08s0,.06.07.09A1,1,0,0,1,273,510.93Zm-.44-2.19c.46-.57.23-1.34.48-2A1.74,1.74,0,0,1,272.6,508.73Zm.77-3.21s-.17,0-.17-.08a.39.39,0,0,1,.24-.44C273.59,505.24,273.56,505.41,273.37,505.52Zm1.44-.82c-.22.06-.32-.08-.32-.34.2-.17.32,0,.42.15A.25.25,0,0,1,274.8,504.7Zm.48-.87a.17.17,0,0,1-.15-.25.25.25,0,0,1,.16-.14c.12,0,.19.06.2.26C275.44,503.73,275.36,503.83,275.29,503.83Zm.16-1.31c.73.43.62,1.35,1.27,1.62l-.93.92C276.25,504.22,275.76,503.47,275.44,502.52Zm.44,4.54c-.11,0-.21,0-.18-.17s.08-.16.13-.16a1.16,1.16,0,0,1,.34.08C276,506.92,276,507,275.88,507.06Zm.56.42c.61-.41,2-.38,2.31.12C277.93,507.57,277.17,508.34,276.45,507.48Zm1.23-5.42c.51,0,1,.6,1.67.61.25,0,.26.34.2.63l-1.41.59c.29.71.7,1.38.17,2.17-.41-.07-.48-.72-1-.79s-.48-.66-.39-1.14c0-.15.17-.26.25-.4C277.55,503.22,276.63,502.08,277.68,502.06Zm1.66,5a1.37,1.37,0,0,1-.29-.28c.07-.07.14-.19.23-.2s.25.08.26.34C279.48,506.95,279.38,507.07,279.34,507Zm-.1-2.1a.38.38,0,0,1,.13-.3c.34-.15.37.19.56.44C279.5,505.3,279.31,505.27,279.24,504.94Zm6.16,7.21,0-.07,0,.08Zm.51-13.54a3,3,0,0,1-2.87,2.08,31.53,31.53,0,0,1-6.41,0c-.86-.1-1.21-.56-1.16-1.56a38.94,38.94,0,0,0-.19-6.51c-.14-1.19.34-1.76,1.31-1.81l2.85-.17c1.59.19,3.07-.1,4.49.49a2.77,2.77,0,0,1,1.59,1.42A7.94,7.94,0,0,1,285.91,498.61Zm1.47-13c-.36,0-.49-.23-.57-.68.42-.15.68-.09.78.31A.3.3,0,0,1,287.38,485.66Zm2.25,18.63a.1.1,0,1,1,0-.17s0,.05.06.08S289.65,504.29,289.63,504.29Zm0-4.44c-.44-.55,0-.77.38-1.05l.7.77C290.42,500.41,290,500.31,289.6,499.85Zm-.22-2.8a3.1,3.1,0,0,0,1-1.75c.34.59,0,1.33.59,1.65C290.44,496.7,290,497,289.38,497.06Zm2.36,2,0-.1.15-.08a.58.58,0,0,1,0,.1Zm1-8.78s.11.1.13.16,0,.21-.19.24l-.15-.24A.79.79,0,0,1,292.71,490.29Zm.92,2.67c-1.86.71-.71-1.31-1.48-1.44C293,491.48,292.83,492.62,293.63,493ZM290,489.18v.08l-.05,0ZM288.53,486a.91.91,0,0,1,.27.06,1.31,1.31,0,0,1-.07.23,1.61,1.61,0,0,1-.27-.09C288.48,486.12,288.5,486,288.53,486Zm.4,1.74c-.33,0-.45-.28-.48-.74C288.88,487,289,487.22,288.93,487.73Zm.84.5a2.11,2.11,0,0,0-1.51,1.09l0,0,0,0C288.17,487.74,289.18,488.42,289.76,488.23Zm-1.82,2.09c0-.27.17-.36.36-.32.42.09.35.4.22.72C288.24,490.78,287.95,490.83,287.94,490.32Zm.6.41c.52-.49,1-1.09,1.79-.61.27.16.46-.24.63-.54.27-.48.36-1.14.91-1.35.59,1.19,0,2-2,2.8,0,1.49.57,1.92,1.81,1.27.23,1.38.93,2.09,2.14,2.06a.57.57,0,0,1,.43.83c-.25.48,0,1.3-.64,1.48-.22.06-.41-.09-.44-.42s0-.69-.17-1c-.46-.27-.33.61-.78.51-.42-.71-.79-1.66-1.85-1.05a1,1,0,0,1-.34-1.39c-.39-.33-.59.35-1,0C289.41,492.42,288.11,491.82,288.54,490.72Zm2.36.79c-.07.15-.16.21-.3.08C290.68,491.42,290.79,491.48,290.89,491.52Zm-1.65,25.24-.11-.25.17-.08.06.2Zm1.77,3.59v-.17s0,.06,0,.09S291,520.33,291,520.35Z"/><path d="M329.74,513.26a17.91,17.91,0,0,0-4.71,0c-2.08.25-4.15-.33-6.21-.09a42.42,42.42,0,0,1-5,.08c-.74,0-1.13-.47-1.11-1.36s0-1.88.1-2.82c.15-2.27.17-2.4,2.11-2.23,4.29.38,8.58-.21,12.86.17,1.24.11,1.54-.27,1.57-1.77,0-1.84,0-3.68,0-5.51-.08-2.21-.36-2.49-2.2-2.49-2.9,0-5.78.52-8.68.38H314.1c-.86,0-1.36-.43-1.34-1.53,0-.85,0-1.71,0-2.56.09-2,.37-2.4,2-2.2a86.94,86.94,0,0,0,10.71.2,16,16,0,0,0,3.21.05c1.31-.26,1.54-.43,1.57-2,0-2.13,0-4.27,0-6.41,0-1.21-.43-1.81-1.5-1.74-3.71.25-7.43,0-11.15.09a20.75,20.75,0,0,1-3.31.22c-3.17-.44-6.36-.09-9.54-.35-1-.08-1.41.42-1.44,1.65a84.6,84.6,0,0,0,0,10.75,26.45,26.45,0,0,1-.07,3.07c-.06,3.67-.31,7.35-.08,11a57.92,57.92,0,0,1-.08,9.09,21.6,21.6,0,0,0,.05,4.6c.13,1.12.58,1.63,1.56,1.62,4.46,0,8.93,0,13.39-.09a39.14,39.14,0,0,1,4.27-.08,42.5,42.5,0,0,0,7.39-.16,1,1,0,0,0,1.06-1.12,47.12,47.12,0,0,0,.09-7.17C330.8,513.68,330.48,513.36,329.74,513.26Zm-2.64-28.82c.34.2.32.47.11.9A.83.83,0,0,1,327.1,484.44Zm-1.74,1.27s.12.11.12.14a1,1,0,0,1-.11.24c0-.06-.09-.12-.09-.19S325.33,485.78,325.36,485.71Zm-.33,3.23c-1,.15-.48-1.16-1.26-1.43C324.82,487.52,324.93,487.67,325,488.94Zm-1.46-4.12c.24-.38.49-.48.75-.2a.6.6,0,0,1,0,.8c-.33.34-.17.8-.31,1.16s-.51,1-1.26.36A1.44,1.44,0,0,0,323.58,484.82ZM321,483.38c.25.75,1.63.89.79,2.31.27.38.68-.27,1,.25.13.48-.24.81-.44,1.28a2.22,2.22,0,0,1-1.57-1.32.64.64,0,0,0-.34.94,1.88,1.88,0,0,0,2,.84c.16.76-.39,1.11-.54,1.63l.24,0-.23.06c-.32-.3-.73-.32-1.07-.67a1.23,1.23,0,0,0-1.89-.15c-.3.3-.6.46-.92,0-.08-.57.55-.8.37-1.4.4.07.78.83.92.24s.77-1.52.29-2.36c-.62-.07-.63.73-1.1.84-.25-.32-.05-.7-.08-1C319.09,483.88,320.24,484.22,321,483.38Zm-2.94,1c.3-.09.31.16.31.4-.18.11-.36.2-.44-.12A.35.35,0,0,1,318.09,484.39Zm-13.72,35.75h0l0,.07Zm9.37-30.95,0-.07,0,.08Zm.43-1.5c-.08,0-.14-.14-.21-.21s.13-.21.19-.21.16.13.27.23C314.33,487.59,314.25,487.7,314.18,487.69Zm1.1.48c-.14,0-.29-.09-.19-.3s.18-.11.27-.11.19.09.39.19C315.45,488.1,315.36,488.18,315.28,488.17Zm1.09-.06a1,1,0,0,1-.14-.13s0-.1,0-.1a.67.67,0,0,1,.16,0Zm.4-3.13a.48.48,0,0,1-.17.39c-.35.12-.48-.16-.56-.6C316.4,484.59,316.67,484.54,316.78,485Zm-6.6,21.39.07.07s0,.08,0,.09-.06,0-.09,0Zm.6.91c-.61,1.86-.61,1.86-2,.88C309.47,507.71,310.26,508,310.77,507.28Zm-.89,2.4c-.1.06-.18.16-.26.17s-.22-.17-.18-.34.15-.2.2-.18S309.76,509.49,309.88,509.68Zm-1-20.44a.26.26,0,0,1,.25-.13c.33.15.28.42.09.77C308.93,489.72,308.81,489.52,308.88,489.24Zm.4,14.65a1.43,1.43,0,0,1,0,1.3h-1C308,504.14,308.43,503.82,309.29,503.89Zm-1.14-19.49c.06,0,.11.16.18.29l-.29.17c0-.1-.13-.21-.11-.29S308.08,484.38,308.15,484.39ZM308,502.55H308l0-.09Zm-.3,3.8c-.07,0-.17-.14-.18-.23s.05-.32.21-.32.17.1.17.11C307.94,506.23,307.89,506.38,307.72,506.35Zm-.15-13.19a1.65,1.65,0,0,1,.3.16,1.4,1.4,0,0,1-.28.18s-.1-.1-.1-.15A.35.35,0,0,1,307.56,493.16ZM305.27,487l.05,0-.07,0ZM305,520a1.15,1.15,0,0,1-.3,0,3.55,3.55,0,0,1,0-.37c.07-.28.1-.63.43-.62a.43.43,0,0,1,.3.29A.56.56,0,0,1,305,520Zm1.79-1.83s0-.13-.07-.2a1,1,0,0,1,.28-.08s.06.13.1.24A1.23,1.23,0,0,1,306.83,518.15Zm.26-1.32c0,.09-.07.19,0,0l0,0,.43-.13v.07Zm0,.08,0-.05Zm1.23,1.28c-.06.15-.13.32-.29.25s-.12-.22-.1-.31.15-.15.24-.16S308.32,518,308.27,518.19Zm.6.49-.06,0a.14.14,0,0,1,0-.09s0,0,.07,0Zm.79-1.91c0,.48.55,1.14-.24,1.67-.65-2.13-1.58-3.78-3.95-2.34.39-1.64,1.79-.44,2.11-1.92.28.88.78,1,1.25,1.24.63-1.47.49-2.05-.64-2.52-.29-.12-.45-.24-.45-.56a1.48,1.48,0,0,0-1.33-1.54c-.48-.11-1.08-.14-.92-.85.11-.53.33-1.39,1.19-1.17l.18,1c.46.19.49-.47.88-.52.48.65.5,2.37,1.85,1.32.82.85,1.06,1.68-.16,2.45.81.56.94-.29,1.28-1a3.2,3.2,0,0,1-.23,2,1.52,1.52,0,0,0,0,1.5C310.75,516.27,310.06,516.45,309.66,516.78Zm-3.9-3.27c.26,0,.36.18.36.44,0,0-.17.14-.23.12C305.63,514,305.62,513.76,305.76,513.5Zm.78-1.53a.26.26,0,0,1,.29,0c.44.37,0,.73,0,1.11C306.41,512.74,306.26,512.39,306.55,512Zm1.51,2,.07,0V514Zm2.54,4.75.63.65C310.89,519.41,310.33,519.91,310.59,518.71Zm.35-6.94a.39.39,0,0,1,0-.22c0-.06.08-.1.12-.15l.12.32C311,511.74,311,511.78,310.95,511.77Zm.19,3.09a1.11,1.11,0,0,1,0,.18l-.15-.09a.77.77,0,0,1,.12-.14S311.14,514.85,311.14,514.86ZM311,485.53c-.48-.3-.12-1-.5-1.31C311.24,484.37,311.57,484.74,311,485.53Zm.34.72c.56-1.62,1.74-.65,2.56-1.08,1.26-.67,1.7.53,2.27,1.54.39-.33.54-1.24,1.22-.58a2.59,2.59,0,0,0,.19,1.69,6,6,0,0,1-2.67-1.61c-.39-.46-.61-.65-1.15-.23A2.26,2.26,0,0,1,311.36,486.25Zm7.7,32.28a.86.86,0,0,1-.25-.08c0-.07,0-.19.07-.19a.89.89,0,0,1,.28,0C319.11,518.4,319.09,518.53,319.06,518.53Zm2.37.89c.22-.39.48-.07.85-.1C321.92,519.41,321.74,519.82,321.43,519.41Zm7-1.12c-.19,0-.31-.1-.29-.28a.33.33,0,0,1,.19-.23c.16,0,.26.09.25.27S328.44,518.22,328.4,518.29Z"/><path d="M440.72,514.16c-2.83-6.52-5.23-13.27-7.48-20.1-1.27-3.85-3.12-7.39-4.18-11.35a1.37,1.37,0,0,0-1.36-1,43.31,43.31,0,0,0-8.24,0,1.79,1.79,0,0,0-1.61,1.4c-1.07,3-2.11,6-3.25,8.91-2.64,6.81-5.19,13.68-7.75,20.53-1,2.73-2,5.47-3,8.23-.48,1.4,0,2.43,1.13,2.3a45.73,45.73,0,0,1,7.17-.1c.93,0,1.54-.51,1.82-1.61s.74-2.32,1-3.52c.29-1.37,1-1.85,2.1-1.84,4.43,0,8.86,0,13.29.4a1.59,1.59,0,0,1,1.49,1.34q.62,2,1.24,4.09c.32,1.06.91,1.55,1.89,1.43s2.21-.14,3.32-.21v.14c1.18,0,2.36,0,3.54,0,1.36,0,1.79-.7,1.29-2.19C442.4,518.69,441.67,516.35,440.72,514.16Zm-29.32-6.51c.15,0,.17.09.18.22s0,.27-.17.22-.12-.17-.13-.28S411.35,507.67,411.41,507.66Zm-2.23,7.49c-.11-.45-.12-.79.31-1C409.69,514.8,409.69,514.8,409.17,515.15Zm1.51-2.25-.11-.31a.8.8,0,0,1,.25-.11s.12.15.11.16A2.22,2.22,0,0,1,410.68,512.9Zm.38-1.54a.27.27,0,0,1,0-.1s0-.06,0-.09a.28.28,0,0,1,0,.1S411.08,511.33,411.06,511.36Zm.73,1.4s-.05-.12-.08-.18l.18-.09.08.2C411.91,512.73,411.85,512.78,411.8,512.77Zm-.13-1.91.07-.1.18.1s-.06.09-.07.08A.89.89,0,0,1,411.67,510.86Zm1.53,1.81c-.09.11-.4,0-.61,0v0h0c.4-2-.25-3.08-2-3.22.42-.79.73-.32,1-.24a1.29,1.29,0,0,0,1-.08c.23.53.2,1.52,1,1.1a1.22,1.22,0,0,0,.2-1.77,1.27,1.27,0,0,1-.2-1.29,1.47,1.47,0,0,0-.61-1.39c-.35-.35-.79-.75-.41-1.22s.78-1,1.35-.4c.16.5-.35.78-.2,1.29.39,0,.6-.59,1-.51.11.49-.2.84-.35,1.28.2.63.54,1,1.16.87,0,.9.65,2.11-.86,1.91.17.91.59.26,1,.42C414.79,510.55,414,511.63,413.2,512.67Zm-.48-6c.2.48.07.75-.39,1C412.27,507.08,412.29,506.77,412.71,506.65Zm3.06-.27c0-.27.18-.26.34-.24,0,.2,0,.38-.23.39C415.84,506.53,415.77,506.43,415.77,506.38Zm.37,2.73c-.07,0-.19-.17-.18-.2a2,2,0,0,1,.24-.38c.09.15.18.24.19.33S416.28,509.14,416.14,509.11Zm.84.49c-.08,0-.14-.14-.2-.2s.1-.36.26-.32a.33.33,0,0,1,.17.24C417.22,509.48,417.16,509.66,417,509.6Zm-.85-3.5a3,3,0,0,0-.43-1.25c.72,0,1.21.55,1.83.68Zm1-3.21c-.21-.31-.83-.37-.54-1s.71-.29,1.06-.05A.86.86,0,0,1,417.1,502.89Zm9-12.3.05.09,0,.1a.63.63,0,0,1-.08-.11S426.09,490.62,426.11,490.59Zm-7.37,19.56-.16-.21a.76.76,0,0,1,.22-.15s.13.07.15.13S418.9,510.13,418.74,510.15Zm1,2.3c-.15,0-.26-.09-.24-.27s.13-.14.22-.23c.08.1.18.18.18.26A.33.33,0,0,1,419.73,512.45Zm-.08-2.56.07,0,0,.08Zm5.12,1.13c-.11.13-.83.09-.75.91s-.49.83-.82,1.17c-.07.28.44.14.26.54-.63.15-1.13-.35-1.68-.56-.23-.09-.45-.41-.66-.15-.36.45-.59.15-.77-.15s-.4-1.2-.07-1.41c1.06-.68.79-1.61.6-2.67.61.52.54,1.45.88,2.11h0l0,0,0,0h.05c.36.6-.45.49-.41.93,1.18,1,1.06-1.06,1.79-1.12,1.11-.09.68-1.56,1.34-2.15a1.3,1.3,0,0,1,1,.88c0,.54-.4.34-.6.5C424.64,510.19,425.21,510.4,424.77,511Zm-2.06-1.5c.23-.15.39-.14.49.06a.24.24,0,0,1-.07.2C423,509.88,422.82,509.81,422.71,509.52Zm2.59,3.54c-.22-.57.29-.74.5-1.13l.57,2C425.87,513.48,425.65,513.12,425.3,513.07Zm-.59-6.74a30.47,30.47,0,0,0-3.94-.14c-1.2,0-1.57-.63-1.14-2,.85-2.72,1.75-5.41,2.66-8.1.21-.62.57-1.13,1.2-1.09s1.1.47,1.31,1.27c.72,2.64,1.5,5.25,2.2,7.89C427.47,505.94,426.9,506.55,424.71,506.32Zm3.81,5.81c0,.31-.3.34-.51.24-.51-.24-.25-.66-.14-1.08C428.46,511.3,428.59,511.67,428.52,512.13Zm1.11-17.36,0-.08.07-.05.08,0Zm2.87,13,0-.13.07,0Zm2.63,8.9a.88.88,0,0,1-.08-.15s0-.06.05-.08l.08.15Zm.39-4.15-.17-.24s.11-.13.14-.12a1,1,0,0,1,.19.2Z"/><path d="M506.12,499.83a24.21,24.21,0,0,0-9.86-3.23,6.43,6.43,0,0,1-3-.78,2.91,2.91,0,0,1-.17-4.63,3.21,3.21,0,0,1,1.7-.72,13.28,13.28,0,0,1,9,1.88,1.25,1.25,0,0,0,2-.36,38.56,38.56,0,0,0,2.87-4.63c.94-2,.85-2.14-.83-3.32a20.57,20.57,0,0,0-9.69-3.39,17.26,17.26,0,0,0-9.44,1.75,9.7,9.7,0,0,0-4.77,4.38,16.35,16.35,0,0,0-1.17,11,7.5,7.5,0,0,0,2.37,4.43,17.48,17.48,0,0,0,10,4.38,13.41,13.41,0,0,1,5,1,3.09,3.09,0,0,1,1.91,3,2.92,2.92,0,0,1-1.83,2.85,12.37,12.37,0,0,1-5.39.69c-2.73,0-5-1.54-7.17-3.34-1.27-1.06-1.67-1-2.55.48a26.6,26.6,0,0,1-3.07,4.26c-.86,1-.84,1.43.08,2.42,3.68,3.94,7.71,6.82,13,6.14.65,0,1.4.05,2.15,0,3.15-.25,6.26-.67,9.08-2.59,3.72-2.53,5.43-6.41,5.43-11.41A11.14,11.14,0,0,0,506.12,499.83Zm-4.49-11.49c.17-.22.34-.24.5,0-.09.29-.25.37-.47.18A.27.27,0,0,1,501.62,488.34Zm-1.84-3.51c0,.07.09.14.09.21s-.06.13-.12.24c0-.07-.12-.14-.11-.18A1.11,1.11,0,0,1,499.78,484.83ZM487.31,499.5a.74.74,0,0,1-.08-.22c0-.12,0-.25.2-.22,0,.08.11.19.1.29S487.39,499.44,487.31,499.5Zm.44,1.17,0-.08h.06Zm2.69.66s.05,0,.08,0,0,.06,0,.07a.09.09,0,0,1-.08,0C490.33,501.39,490.34,501.35,490.43,501.32Zm-.41-3c-.1,0-.11-.1,0-.16s.07,0,.1,0,0,.06,0,.1S490,498.38,490,498.37Zm.44,5.44c-.16,0-.25-.15-.25-.32s0-.32.22-.33a.38.38,0,0,1,.32.41C490.75,503.78,490.6,503.81,490.46,503.8Zm1.06-3c.37.3.13.66.08,1C491.47,501.53,491,501.27,491.52,500.84Zm.15,1,0,0v0Zm.17,1.83a.46.46,0,0,1-.41-.45c0-.3.07-.49.33-.47s.37.22.39.49S492.06,503.64,491.84,503.67Zm2.32-2.26v-.07l.06,0Zm1.45-.25c-.76,0-.62-.54-.47-1.14C495.91,500.13,495.47,500.8,495.61,501.16Zm0,.18v-.12l0,.06S495.65,501.33,495.64,501.34ZM484.81,516.8s-.13-.05-.14-.1a.53.53,0,0,1,0-.2l.15.1Zm6-.24c-.47.25-.66-.08-.93-.37C490.4,515.86,490.65,516,490.84,516.57Zm-1.12-1.6.18.11-.07.21c-.06,0-.15,0-.17-.1S489.69,515,489.72,515ZM489,517a1.52,1.52,0,0,1-.19.26s-.13-.07-.15-.13,0-.22.16-.24Zm-.46-1.11c.05.07.16.14.18.24a.22.22,0,0,1-.23.29.3.3,0,0,1-.2-.2A.27.27,0,0,1,488.56,515.93Zm-1.9-1s0,.13.07.2l-.14.11-.09-.27C486.55,515,486.63,514.9,486.66,514.93Zm-.88,1.43c0-.23.17-.23.3-.28s.32.15.29.41-.13.31-.28.29A.36.36,0,0,1,485.78,516.35Zm1.2,3.47a.35.35,0,0,1-.12-.27c0-.07.13-.13.2-.19l.13.25C487.14,519.76,487.1,519.9,487,519.82Zm2.14.74c.28,0,.64-.23.78.36C489.47,521.24,489.32,520.84,489.12,520.56Zm2.58-.43s-.05,0-.08-.05l.11-.14.07.06A.9.9,0,0,1,491.7,520.13Zm-.92-.48c-.46.91-1.41-.21-1.72.86-1-.4.36-1.08-.12-1.59-.43,0-.24.85-.85.73-.38-.69-.91-1.41-1.86-1-.2-1.74.37-2.44,1.72-2a1.11,1.11,0,0,0,.12,1.4c.41.4.79.24,1.17-.07a2.58,2.58,0,0,1,1.44-.63c.68-.06.74-1.05,1.17-1.63.44.23,1,.33.88,1.16-.21.47-.63-.13-1,.52-.09.17.56.32.32.85C491.35,518.3,490.49,518.44,490.78,519.65Zm2.37,1.83c-.4-.12-.52-.77-1-.65a3.27,3.27,0,0,1,1-1.68Zm2.91-1c-.49,0-1,0-.92-.74,0-.33.18-.73.55-.59C496.28,519.33,496.23,519.86,496.07,520.43Zm2.2-1.61,0-.07,0,.07Zm0,0a2.4,2.4,0,0,0,1.54-.5C499.48,519.36,498.93,519.39,498.28,518.83Zm3.16-17c-.11.27-.26.23-.39.07a2,2,0,0,1-.2-.41C501.16,501.45,501.35,501.53,501.44,501.84Zm-2.21-1.44s.11.15.09.19a1.37,1.37,0,0,1-.21.29,1.44,1.44,0,0,1-.09-.38C499,500.37,499.13,500.31,499.23,500.4Zm-2.32.59,0-.08.07,0Zm.27,1.57v-.08h.05Zm3.21,2.41.29.56C500.26,505.51,500.4,505.18,500.39,505Zm1.33,11.25c-.07,0-.16.1-.23.08a.24.24,0,0,1-.15-.36.26.26,0,0,1,.24-.13C501.71,515.84,501.77,516,501.71,516.21Zm.69,2.1a.83.83,0,0,1-.44-.87C502.59,517.51,502.59,517.51,502.41,518.31ZM503,506.2c-.52-.3-.78-.63-.56-1.26l-.26.06.25-.07C503.37,504.83,503,505.58,503,506.2Zm.43-3.81c-.1.64-.58,0-.78.29s.38.44.1.86c-.55,0-1.2-.1-1.41.9-.1.48-.65.22-.92.5h0c-1-.46-2.09-.55-2.79-1.7.49-.46,1-.88,1.42-1.34.2-.2.37-.45.63-.2s.15.53,0,.81h0c-.15-.3-.29-.26-.44,0h0v0h0c-.17.92.38,1.16.78.7.73-.84,2-.38,2.48-1.71.08-.24.37-.21.56,0A1,1,0,0,1,503.39,502.39Zm-3.78.15c-.12.06-.24.1-.36,0ZM504,514.61l-.1-.1s.05,0,.08,0,0,0,.07.06Zm.58-8.12c-.19,0-.33-.14-.33-.38a.62.62,0,0,1,.43-.6.41.41,0,0,1,.33.41C505,506.22,504.85,506.47,504.57,506.49Zm.77,11.29c0-.07-.1-.18-.09-.2a1.12,1.12,0,0,1,.21-.19l.12.21Z"/><path d="M406.53,490c.16-2.39.17-4.78.13-7.17a1.18,1.18,0,0,0-.94-1.22,5.7,5.7,0,0,0-1.49-.18c-4.93.19-9.85.08-14.78.28-3.74.16-7.48-.06-11.23-.09-1.47,0-1.87.33-1.79,2.07.09,2,.1,3.92.09,5.88,0,1.28.53,1.76,1.52,1.76h3.75v-.07c1.21,0,2.43,0,3.64,0,.71,0,1,.29,1.06,1.18.2,9.52.58,19,.06,28.57-.09,1.63.08,1.85,1.41,2,2.46.32,4.92-.21,7.38.19.93.15,1.3-.64,1.15-1.65a70.48,70.48,0,0,1-.26-10.62c0-5.93.11-11.86.23-17.79,0-1.65.25-1.89,1.62-1.79,2.32.17,4.64-.27,6.95.11C405.93,491.66,406.46,491.15,406.53,490Zm-13.64-.52c.41.1.63.32.5.79,0,.1-.28.22-.36.17C392.66,490.24,392.72,489.89,392.9,489.51Zm-.19,7.25c.08,0,.12.17.21.29-.13.07-.23.18-.29.15s-.14-.18-.14-.28S392.59,496.69,392.71,496.76Zm.35,2.94a.81.81,0,0,1-.18,1.15c-.33.3-.57-.08-1.08-.42A1.6,1.6,0,0,0,393.06,499.7Zm-.06,7.87a.29.29,0,0,1-.28.3c-.16,0-.25-.12-.27-.31s.05-.33.23-.36S393,507.34,393,507.57Zm-1.58-6.16c.75.35,1.19.62.93,1.57a1.61,1.61,0,0,0,.21,1.41,1.66,1.66,0,0,1-.7,2.25.66.66,0,0,0-.47.49c-.1.67,1.18.72.45,1.72-.35-.19-.8-.11-1.31.4a7.13,7.13,0,0,1,1.24-3.59,1.24,1.24,0,0,0,.06-1.45A4.35,4.35,0,0,1,391.43,501.42Zm-1.12-2.5s.09,0,.09,0a1.52,1.52,0,0,1,.07.2l-.19,0A1.07,1.07,0,0,1,390.31,498.92Zm.12,5.71c.07,0,.15.09.2.13,0,.23-.08.38-.23.39s-.19-.12-.2-.2A.26.26,0,0,1,390.43,504.62Zm-.21,3.14c0,.05-.11.07-.17.1l-.08-.19.22-.11C390.21,507.62,390.25,507.71,390.23,507.76Zm-.08-1.45c0,.07-.07.13-.11.2s-.13-.13-.12-.16a1,1,0,0,1,.14-.23C390.09,506.18,390.15,506.25,390.15,506.31Zm-.2-12.52c0,.08.09.17.07.22-.14.43-.36.58-.76.19C389.43,493.81,389.63,493.64,389.95,493.79Zm-.18,14.76c0,.07-.05.16-.1.19s-.1-.05-.16-.08l.08-.2Zm-1-22.64a.81.81,0,0,1,.26.06c0,.11-.08.24-.1.24a.92.92,0,0,1-.23-.11C388.71,486,388.73,485.91,388.76,485.91Zm.17,18.56,0-.07,0,.08Zm0-13.17c-.24-.24-.23-.41-.05-.61C389.1,490.82,389,491,388.9,491.3Zm3.65,27.92c-.66-.65.16-1.55-.43-2.25C393,517.26,393.07,517.76,392.54,519.22Zm-.47-2.81a1.71,1.71,0,0,1-.69-1.91,2,2,0,0,1,1.29-1.5c-.74-.39-1.38-.48-1.51,0s-.79,1.05-.42,1.83c.44.93,0,1.34-.7,1.26-.41-.05-.59.25-1,.47.25-.9,1.14-1.6.19-2.36,1-1.28,1.13-2.08.46-3.71a.54.54,0,0,1,0-.47c.1-.22.26-.32.44-.2a1.8,1.8,0,0,0,.85.47c0,.42-.5.88-.11,1,.69.3,1.44.79,2.18.13a.7.7,0,0,0-.54-.72c-.3-.12-.55-.23-.42-.8.38,0,1.06.48,1.05-.72.1,1.52.87,2.6,1,4.19-.34.3-.82,1.05-1.86.48.3.74.5,1.33-.31,1.4.38.78.9.37,1.35.41C393.15,516.45,392.64,516.76,392.08,516.41Zm1.31-.79a1.15,1.15,0,0,1,.65-1.23C394.5,515.38,394.46,515.48,393.38,515.62Zm1.12,1.45a.34.34,0,0,1-.17-.25c0-.17.1-.31.25-.25s.09.19.14.33S394.55,517.09,394.5,517.07Z"/><path d="M474.14,512.93c-4.28.62-8.57.3-12.86.4-1.46,0-1.68-.23-1.53-2,.56-6.58-.23-13.16,0-19.73,0-2.86,0-5.73,0-8.59,0-1-.31-1.39-1.13-1.4-2.22,0-4.43-.11-6.65-.13-1.82,0-2.18.48-2.14,2.67.13,7.56.47,15.13.26,22.69-.13,4.74.26,9.48-.19,14.21-.14,1.47.35,2,1.59,2.1a7,7,0,0,0,1.18,0c4.71-.5,9.42.17,14.14-.28,2.69-.26,5.42.21,8.14.28,1.29,0,1.69-.45,1.68-2,0-1.92-.08-3.85-.13-5.77C476.47,513,476.17,512.64,474.14,512.93Zm-15.73-14c-.33-.25-.32-.49-.1-.83C458.72,498.34,458.65,498.6,458.41,498.94Zm-.74-3.13-2.1-1.33a6.11,6.11,0,0,0,2.57-.93C458.45,494.56,457.13,494.61,457.67,495.81Zm-.84.84c-.13,0-.26-.1-.27-.31s.08-.42.27-.44.24.13.25.32S457,496.64,456.83,496.65Zm-1.11-.67-.07,0V496Zm1.71-5.45c0,.06.07.15,0,.19s-.1.07-.16.11l-.1-.17Zm-.24,1.71c.41.29.37.49.18.72C457,492.86,457.2,492.58,457.2,492.24Zm-.22-6.59.13.25c0,.18-.1.3-.21.23a.36.36,0,0,1-.12-.28C456.79,485.77,456.9,485.71,457,485.65Zm-1.32,4.18c.29-.09.58-.53.86-.16s.06,1,0,1.63l-1.26-.27C455.09,490.46,455.08,490,455.65,489.83Zm-.77-1.8,0,.11h-.08Zm-1.11,5.58c.07,0,.1.16.15.25l-.27.18c-.07-.1-.18-.19-.18-.26S453.66,493.56,453.78,493.61Zm-1.25-7.07,0,.08h-.06Zm1.19,23.78c-.12.43-.5.68-.57,1.15-.05-.41-.09-.82-.16-1.22s0-.52.2-.63a.41.41,0,0,1,.39,0A.68.68,0,0,1,453.71,510.32Zm-.61-2.73c.25.18.28.4.07.73C452.94,508,452.9,507.83,453.1,507.58Zm.59-2.54c.31-.16.41.08.5.36-.25.2-.47.29-.6-.07A.36.36,0,0,1,453.69,505Zm.15,2.41c-.22-.56-.06-.8.5-.9C454.39,507.14,454.27,507.41,453.84,507.45Zm.61-3.08,0-.08h.06Zm.86,2.16c-.22-.39-.13-.61.11-.8C455.66,506,455.61,506.24,455.31,506.54Zm.91,0-.14-.23s.11-.1.14-.08.07.1.1.16Zm.84-1c-.12.22-.32.17-.46,0-.43-.41-.24-.78.07-1.12a.28.28,0,0,0,0,.11C456.82,504.87,457.37,505,457.07,505.52Zm-.39-1.1h0c-.64.24-1.14.14-1.45-.72s-.84-.81-1.46-.57-1,.52-1.56.28c.25-1.6,2,0,2.09-1.75.57.63.91,1.26,1.59,1.27a1.63,1.63,0,0,0,.4-1.79c-.34-.58-.73-1.41-1.66-1,.1-1.83-.66-2.52-2-2.54a.74.74,0,0,1-.73-.87c.13-.57.36-1.25.94-1.43s.54.44.65.87c.07.26.08.6.38.71.37-.27.07-.84.44-1.14.8.1.64.84.55,1.62.55-.12.84.33,1.12.62.46,0,.33-.6.69-.72a8.79,8.79,0,0,1,.79,1.25c.39.91-.48,1.17-.76,1.71.31.8,1,.14,1.4.7-.4.79-1.28,1.62-.25,2.56C457.7,504.32,457.14,504.27,456.68,504.42Zm-4.42-3.31c0-.24.14-.37.35-.28a.47.47,0,0,1,.25.44c-.05.25-.18.3-.32.27A.35.35,0,0,1,452.27,501.11Zm.64-2.05a.71.71,0,0,1,.9,0l-.15,1.53C452.8,500.33,453.42,499.42,452.9,499.06Zm2,2.05c.43,0,.42.43.5.76C455.16,501.73,454.76,501.71,454.93,501.11Zm3.25,5.15s-.12-.06-.14-.11,0-.13,0-.2l.15.11Zm-.53-6c0-.47.17-.66.63-.83C458.23,500,458.1,500.21,457.65,500.21Zm.84,2.28c-.06,0-.12-.06-.18-.09l.18-.34.18.33C458.6,502.43,458.54,502.49,458.49,502.5Zm9.89,13.68a.29.29,0,0,1,0-.11s.05,0,.08,0l0,.11Zm2.36,2.74c.22-.23.42-.31.65.07C471.14,519.23,470.94,519.44,470.74,518.91Zm3.2-1.25-.13-.07.07-.07s.07,0,.08,0S473.94,517.63,473.94,517.66Z"/><path d="M421.51,511l.19-.16-.22,0Z"/><path d="M422.63,512.57a.94.94,0,0,0-.16.08s0,.09.06.08a.88.88,0,0,0,.16-.08S422.64,512.57,422.63,512.57Z"/><path d="M500.07,504.31s.06,0,.08,0,0-.05,0-.08l-.13-.05S500.07,504.28,500.07,504.31Z"/><path d="M660.19,473.83a2.41,2.41,0,0,0,2.5,1.54c1.52,0,3-.12,4.55-.21s2.26-.83,2.29-2.84c0-1.52-.08-3.06.06-4.57a85.27,85.27,0,0,0,.1-9.4c-.12-5.93-.39-11.86,0-17.79a39.08,39.08,0,0,0,.17-4.69c-.09-1.51-.4-2-1.69-2-2.26-.07-4.52-.09-6.78-.07-1.23,0-1.55.43-1.55,2s.08,3.22.08,4.83a124.53,124.53,0,0,0,.25,13.31c0,.43.21,1-.27,1.22s-.7-.27-.93-.63c-1.46-2.29-2.93-4.56-4.37-6.87A143.84,143.84,0,0,0,646,434.7a1.37,1.37,0,0,0-1-.64,49.4,49.4,0,0,0-6.46,0,.94.94,0,0,0-1,.94,14.61,14.61,0,0,0-.26,3c.55,5.11,0,10.25.19,15.36,0,1.4.08,2.8,0,4.19-.36,5.16.06,10.32-.22,15.48-.08,1.57.4,2.12,1.74,2.23.87.07,1.76,0,2.64-.05,1.38,0,2.76,0,4.13-.06s1.85-.69,1.63-2.46a21.29,21.29,0,0,1-.26-2.52c0-4.92,0-9.83,0-14.75,0-.45-.08-1,.39-1.2s.59.36.81.66.46.75.72,1.1c2.6,3.58,4.71,7.62,7.17,11.33A36.75,36.75,0,0,1,660.19,473.83ZM668.14,441a1,1,0,0,1,.23.12l-.1.25a1.21,1.21,0,0,1-.21-.19A.32.32,0,0,1,668.14,441Zm-2.22-2.77c-.16.53-.42.39-.73.26C665.35,438,665.56,437.9,665.92,438.25ZM663,471.31a.28.28,0,0,1,0,.1s0,0-.07.06l-.06-.08Zm-2.56-8c0-.09.22-.15.33-.14s.21.17.2.35-.14.3-.3.24A.34.34,0,0,1,660.48,463.27Zm-.48,4.8c.23.45.23.66,0,.78a.17.17,0,0,1-.17-.06C659.62,468.49,659.89,468.41,660,468.07Zm-1.8-9.23s0,0,0,.08l-.08,0,0-.14A.22.22,0,0,1,658.2,458.84ZM639,469.17c.18-.38.37-.35.63-.15C639.45,469.49,639.26,469.48,639,469.17Zm10.18-25s.05,0,.08,0,0,.08,0,.11-.08.13-.13,0A.15.15,0,0,1,649.15,444.16Zm.54,2c-.65,0-.67-.37-.69-.86C649.49,445.26,649.59,445.59,649.69,446.14Zm-3.41-5.52a.32.32,0,0,1,0,.11s0,0-.07.06l-.05-.1Zm-.48,1c0-.06.21-.11.24-.07s.11.37,0,.59A.36.36,0,0,1,645.8,441.58Zm-.3,1.27a.75.75,0,0,1,.17,0l-.07.21a1,1,0,0,1-.13-.14S645.48,442.85,645.49,442.84Zm-.67-3.74c.36,0,.66,0,.62.58,0,.08-.14.23-.21.22C644.8,439.88,644.74,439.56,644.82,439.11Zm-.57,5.45-1.16,1.12C643.06,444.77,643.42,444.44,644.25,444.56Zm-.22,1.9c-.23-.34-.07-.49.06-.67C644.47,446.16,644.25,446.28,644,446.46Zm-1.79-3.59c.28,0,.44.18.42.54-.24.17-.46.18-.58-.17C642,443.09,642.07,442.88,642.24,442.87Zm-.67,4.78.06.15h-.1l0-.09Zm-1.08-1.82a1.08,1.08,0,0,1,.29,0c0,.1-.07.22-.11.22a.79.79,0,0,1-.25-.07C640.43,445.95,640.45,445.83,640.48,445.83Zm.58,1.18a.5.5,0,0,1-.18.4c-.37.14-.46-.22-.61-.6C640.65,446.63,640.92,446.62,641.06,447Zm-.41,5.35c-.1-.45,0-.74.4-.82.07,0,.27.21.26.29C641.26,452.25,641,452.44,640.65,452.36Zm.79,5.05a.55.55,0,0,1-.11-.29s.11-.1.16-.1a2,2,0,0,1,.4.17C641.59,457.35,641.47,457.44,641.44,457.41Zm.76-2.39,0-.08h0Zm.9,10.76c0,.18-.19.27-.33.18-.31-.19-.33-.49-.14-.9C643,465.17,643.21,465.36,643.1,465.78Zm-.26-12.84c-.46-.6-.22-.91.09-1.31C643.35,452.14,643.19,452.48,642.84,452.95Zm.37,6.89s0-.07,0-.1.06,0,.07,0a.14.14,0,0,1,0,.1C643.29,460,643.24,460,643.21,459.84Zm1.41-7.37c.06-1-.76-1.55-.43-2.48-.44-.21-.6.08-.75.37a.81.81,0,0,1-.92.46c-1-.27-1.86-.47-2.6.72.65-1.26-.76-2.65.31-3.69.51.65.51.65,0,1.71.58,1,1.41.34,2.12.43,0-1.5.49-1.88,1.56-1.26.55.31,1.1,0,1.64,0A6.66,6.66,0,0,1,644.62,452.47Zm2.19-3.66.3.3C646.76,449.24,646.82,449,646.81,448.81Zm2.14,2.94c-.51-1.58-.38-1.8,1.15-1.81Zm-.35-2.25c.06,0,.12-.11.17-.1s.19.1.16.26-.14.12-.15.1A1.54,1.54,0,0,1,648.6,449.5Zm1.36-1c-.54-.46-1.16-.89-1.73.22-.13.24-.68.06-1-.2s-.4-.07-.47.22a3.54,3.54,0,0,1-.71-1.68c-.11-.36-.09-.77-.49-.83s-.23.54-.38.66c-.53.44-1.22.53-1.76,1.2-.22-.73-.87-.67-1.21-1.15-.09,0-.2.08-.28,0s0-.09.08,0a.47.47,0,0,0,.18,0c.2-.53.49-.54.85-.26s.81.81,1.27.12,1.2-1.2.55-2.25c0-.08,0-.24,0-.56,1.43.5,2.87.89,3.59-1.42a2.19,2.19,0,0,1-1.82,2.54c.05,1.2.45,1.67,1.33,1.39.4-.13.71-.26,1,.17s.77,0,1.14-.09.75-.61,1-.13a1.4,1.4,0,0,1,.08,1.6c-.43.24-.51-.42-.88-.41S650.53,448.42,650,448.5Zm-2.18-3-.1.16a1,1,0,0,1-.09-.17s0-.09,0-.09Zm3.8,7.6a.68.68,0,1,1,.33-1.31C652.31,452.43,652,452.78,651.58,453.1Zm3.92,5.41c0-.06-.13-.16-.12-.23s.12-.14.2-.17.1.1.11.17S655.66,458.5,655.5,458.52Z"/><path d="M501.27,433.85a45.52,45.52,0,0,1-5.6,0c-1.87-.2-2.14.19-2.15,2.46,0,3.85.23,7.71,0,11.56-.1,1.59-.38,1.91-1.71,1.9-2.81,0-5.6-.54-8.44,0-2.16.41-2.35,0-2.35-2.62,0-.34,0-.68,0-1,0-3.26.07-6.52.28-9.78.11-1.76-.27-2.31-1.66-2.4-2-.13-4.07.18-6.12,0s-2.46.55-2.17,3a33.16,33.16,0,0,1,.23,6.59c-.33,4.19-.17,8.38-.12,12.33a46.08,46.08,0,0,1,.1,4.82c-.13,4.06-.19,8.13-.24,12.2,0,1.73.28,2.13,1.7,2.19,2,.08,3.95-.09,5.92.17s2.62-.41,2.39-2.74c-.38-3.81-.05-7.62-.14-11.43,0-1.4.3-1.8,1.44-1.7a70.21,70.21,0,0,0,9.42.09c.93,0,1.28.3,1.34,1.5.22,4.15-.15,8.3.19,12.45.09,1.15.39,1.93,1.44,1.81a52.92,52.92,0,0,1,6.45-.12c1.27,0,1.87-.71,1.69-2.23-.52-4.44-.09-8.89-.18-13.33-.07-3.21.3-6.43.25-9.65-.06-4.53-.2-9,0-13.58C503.28,434.4,502.86,433.83,501.27,433.85Zm-26.48,27.76-.06,0s0-.06,0-.08,0,0,.06,0Zm2.26,2.31a1.31,1.31,0,0,1-.07-.4c0-.06.13-.09.2-.13s.08.15.06.2A1.65,1.65,0,0,1,477,463.93Zm0-4.13h.06l0,.08Zm-.64-1.25c.35-.17.6-.07.83.39C476.73,459.3,476.56,459,476.41,458.55Zm1.65-6s.08-.08.13-.12a.88.88,0,0,1,.09.16,1.3,1.3,0,0,1-.18.17A.58.58,0,0,1,478.06,452.57Zm.15,4c0-.27.08-.33.24-.35C478.43,456.39,478.47,456.62,478.21,456.58Zm.29-.44c0-.38,0-.78.54-.9C479.06,455.76,478.67,455.87,478.49,456.14Zm.36,3.86s-.14-.1-.14-.11.07-.22.14-.25.14.09.27.18C479,459.91,478.93,460,478.85,460Zm.72-4.58,0-.09,0,.1Zm1.21-1.89-.62-1.37C480.84,452.42,481.21,452.64,480.79,453.53Zm11.89-.36c.13-.25.36-.32.53-.09a.68.68,0,0,1-.2,1C492.67,453.92,492.42,453.67,492.68,453.17Zm-9.31,4-.09,0,.09,0Zm.38-1.41c-.06-.07-.16-.14-.17-.22s.07-.18.13-.34c.08.14.17.23.17.31S483.81,455.64,483.76,455.73Zm1,.37-.22-.24.12-.13.21.21Zm-2.58-1.56c-.32.06-.54-.14-.78-.48.28-.62.62-.92,1.22-.71a1.11,1.11,0,0,0,1-.07c.83-.48,1.45.1,1.71,1.91C484.22,453.22,483.16,454.35,482.13,454.54Zm3.32-1.47c.26-.19.48-.26.64,0a.49.49,0,0,1-.1.4C485.74,453.62,485.55,453.49,485.45,453.07Zm1.14,2.64c-.58-.11-.91-.4-.79-1,.06-.31.33-.79.68-.55C487.12,454.61,486.44,455.14,486.59,455.7Zm4.63,1.94c-.06,0-.12,0-.18-.08l.08-.22c.06,0,.14.05.17.11S491.25,457.64,491.22,457.65Zm-1.44-3.51c-.38,1.32-.28,1.44,1.59,2,.15.58-.12.81-.54,1s-.6.2-.92-.21a1.22,1.22,0,0,0-1.76-.39c-.26.18-.46.46-.73.19a.9.9,0,0,1,0-1c.2-.47.47-.4.77-.14.07.06.2,0,.39,0-.06-.77.87-1.43.18-2.3-.53.06-.59.69-1,.9a2.77,2.77,0,0,0-.46-1.44c.94,1.13,1.59-1.53,2.45,0L490,452c.51.06.72.54,1,.88s0,.82-.39,1.46c1-.61,1.26,1.35,2.19.28a2.31,2.31,0,0,1-.25,1.14C491.55,455.54,490.46,455.46,489.78,454.14Zm2.89,1.62c1-.22.74,1.07,1.35,1.53C492.88,457.42,493.31,456,492.67,455.75Zm1.4-1.17a1,1,0,0,1,0-.19s.09,0,.09,0a1.51,1.51,0,0,1,.08.21Zm5.3-6.5c.19-.1.32.05.37.27s0,.39-.18.44-.37-.1-.36-.33A.54.54,0,0,1,499.37,448.09Zm-.25,4.19a1.38,1.38,0,0,1-.28.07,1.06,1.06,0,0,1-.08-.24.73.73,0,0,1,.26,0S499.09,452.2,499.12,452.27Zm-.26-1.25c-.18,0-.25-.11-.17-.3s.15-.15.22-.22l.17.28C499,450.88,498.94,451,498.86,451Zm-.18-11a.45.45,0,0,1,.29.45c0,.22-.16.28-.28.21a.57.57,0,0,1-.24-.34A.25.25,0,0,1,498.68,440Zm-.82,11.32,0,.09h-.06Zm-.7-7c0-.06.1-.14.15-.14s.16.12.08.24-.11.07-.17.1S497.15,444.36,497.16,444.31Zm-1.49,6.92,0,.08-.12.1,0-.08Zm-.31,2.35,0,.12s-.07,0-.08,0,0-.07,0-.11Zm1.58,6.85-1.74.67,1.23-2.36C496.7,459.28,496,460.2,496.94,460.43Zm-.3,3.7c-.08-.5-.25-1,.36-1.06.26,0,.65,0,.63.46C497.58,464.3,497.07,464.11,496.63,464.13Zm1.65-1.94s0,0-.07,0l0-.1s.07,0,.07,0A.15.15,0,0,1,498.28,462.2Zm.45-1,0-.07,0,.1Zm1.48-2.32c-.13.44-.29,1-.77,1.12-.63.16-.34-.55-.49-.83-.38-.31-.47.5-.9.23-.18-.82-.36-1.64-1.47-1.33-.44.12-.54-.94-.81-1.4-.41,0-.26.5-.54.69a2.46,2.46,0,0,1,.11-1.69c.32-.65.74-1.05.39-2-.26-.7.54-.66.9-.9.17-.31-.45-.56.1-1,.88,1,1.55,3,3.4,1.76a1.74,1.74,0,0,1-2.6.48c-.85.76-.85,1.41.1,2a1.34,1.34,0,0,1,.79,1.14c.07.85.81.65,1.24.91S500.35,458.41,500.22,458.85Zm-.28-3.42a.16.16,0,0,1-.17.07s-.07-.11-.1-.18.09-.11.14-.11A.15.15,0,0,1,499.93,455.43Zm-.54,1.83c-.76-.48-.48-.93-.42-1.43C499.66,456.15,499.26,456.68,499.39,457.27Zm-1.48-2s-.06,0-.07,0a.25.25,0,0,1,0-.09s.06,0,.07,0A.3.3,0,0,1,497.91,455.29Z"/><path d="M627.67,468.36a26.36,26.36,0,0,0,2.17-8.7c.39-3.26-.25-6.51,0-9.77.4-4.73,0-9.48,0-14.22,0-1.08-.38-1.56-1.25-1.57-2.36,0-4.72.12-7.08-.1-1-.09-1.51.58-1.47,1.81,0,.89.05,1.78.08,2.67.07,2.24.21,4.49.18,6.73,0,3.77-.28,7.52-.1,11.3.14,2.8-.28,5.58-2,7.64a5.9,5.9,0,0,1-6.79,1.81c-2.52-.8-3.4-3.22-3.91-5.92a34.43,34.43,0,0,1-.23-8.61c.35-5.21-.08-10.42.08-15.63,0-1.15-.45-1.81-1.47-1.84-1.83,0-3.67-.15-5.5-.2-2.56-.08-2.94.38-2.84,3.49.1,3.43.08,6.86,0,11.08.14,2.69,0,6.16,0,9.64a22.85,22.85,0,0,0,2.79,10.89c1.9,3.43,4.45,5.78,7.76,6.54,3.53.81,7.15,1.24,10.72.17A13.71,13.71,0,0,0,627.67,468.36Zm-27.4-13.16s-.07,0-.07,0a1.89,1.89,0,0,1,0-.19l.07,0C600.3,455.08,600.28,455.14,600.27,455.21Zm.4,2.93a.4.4,0,0,1-.08-.18,1.25,1.25,0,0,1,.22-.17l.11.22A1.17,1.17,0,0,1,600.67,458.14Zm1.92-10.81s-.06,0-.06,0a.33.33,0,0,1,0-.09s.06,0,.06,0A.33.33,0,0,1,602.59,447.33ZM603.9,455a.55.55,0,0,1-.25-.34.26.26,0,0,1,.21-.35c.21,0,.29.17.31.4S604.05,455.1,603.9,455Zm13.66,13.77c-.06,0-.11-.15-.14-.25s.11-.13.15-.12.14.1.27.19C617.71,468.72,617.62,468.82,617.56,468.81Zm.4,3.58a.22.22,0,0,1-.06-.18c0-.05.11-.06.16-.09l.07.22C618.07,472.36,618,472.41,618,472.39Zm8.94-8.72s0-.07,0-.1.06,0,.07,0a.15.15,0,0,1,0,.1C627,463.79,626.93,463.79,626.9,463.68Zm1.56-6.68a.69.69,0,0,1,0-.81C628.75,456.39,628.78,456.63,628.45,457Zm-1-3.14c0-.48-.45-.45-.64-.91l1.74-.75C628.19,452.83,628.09,453.64,627.45,453.86Zm0,.85c-.42-.32-.29-.56,0-.8A.72.72,0,0,1,627.43,454.71Zm.35-3.44s.07,0,.07,0a.38.38,0,0,1,0,.1s-.07,0-.07,0A.36.36,0,0,1,627.78,451.27Zm-.76-2.5c.33.43.16.8.17,1.25-.44-.05-1,.29-1.07-.52S626.71,449,627,448.77Zm-1.15,4.73.05,0-.06,0Zm-.33-2.68.07.2-.15.11a.61.61,0,0,1,0-.21S625.5,450.85,625.54,450.82Zm-.69,1.31a1.43,1.43,0,0,1,.07.18s-.06.06-.08.05a.94.94,0,0,1-.15-.12Zm-1.52,5.46a1.54,1.54,0,0,1,.22.35c0,.05-.1.16-.14.23a.28.28,0,0,1-.26-.33C623.17,457.75,623.28,457.67,623.34,457.59Zm-3,11.32c.37.05.48.37.62.63,0,.06-.09.16-.13.17C620.26,469.78,620.14,469.49,620.31,468.91Zm.5,3.43a.4.4,0,0,1-.17-.27.25.25,0,0,1,.27-.29c.19,0,.2.18.21.35S621,472.42,620.82,472.34Zm.75-.89c-.22,0-.27-.21-.25-.43s.12-.46.34-.47a.37.37,0,0,1,.37.39A.43.43,0,0,1,621.56,471.45Zm.29-6.55c-.13-.46-.1-.79.3-.9.07,0,.26.17.27.28C622.45,464.68,622.27,464.89,621.85,464.9Zm.76-2c-.14.11-.18,0-.18-.15s.06-.13.09-.2l.16.14C622.67,462.74,622.66,462.84,622.62,462.88Zm.38,5c-.35-.21-.19-.37-.11-.57C623.12,467.52,623,467.68,623,467.89Zm.2-.94-.09-.41,1-.22.06.25Zm.41-4.79a.27.27,0,0,1,.22.17c.05.19-.06.29-.25.35s-.17-.1-.19-.18A.27.27,0,0,1,623.61,462.15Zm.89-1.4s-.05,0-.08,0,0-.08,0-.1.05,0,.08,0S624.51,460.73,624.5,460.75Zm.32,1.78-.09,0,.09-.13s.05.06.05.09S624.84,462.5,624.81,462.53Zm.24-2.44c-.48-1.14-1.48.09-2.26-.37.36-1.39,1.65.24,1.94-1.16.39.7.69,1.15,1.19,1.31.73-1,.71-1.64-.17-2.36-.25-.2-.52-.31-.46-.72.18-1-.4-1.21-1-1.37-.4-.1-1-.15-.93-.77s.36-1.26,1.09-1.3c.26.42,0,.87.31,1.21.32,0,1-1.24,1,.35,0,.5,1,.82,1.41.54A1.65,1.65,0,0,1,627,458c.6.41.67-.37,1-.5.46,1.31-1.68,1.84-.6,3.18a1.26,1.26,0,0,1-.94.7c-.15.39.44,1.25-.57,1.26C626.25,461.46,625.4,460.9,625.05,460.09ZM624,456.17c.7.28.7.28.28,1.22C623.77,457.12,624.22,456.53,624,456.17Zm1.34,2.42s.06-.13.09-.2l.26.18-.2.26A1,1,0,0,1,625.32,458.59Z"/><path d="M511,473.47c.13,1.29.57,1.83,1.61,1.78,4.16-.21,8.32,0,12.48,0a32.26,32.26,0,0,1,3.48-.24,60.59,60.59,0,0,0,8.57,0c.8,0,1.12-.42,1.21-1.35a61.17,61.17,0,0,0,.13-6.47c0-1.22-.44-1.71-1.46-1.79-3-.24-6,.28-8.09,0-2.91,0-4.92,0-6.94,0-1.39,0-1.58-.25-1.57-1.94,0-.8.07-1.61.16-2.4.22-2.07.31-2.23,2-2,4.22.49,8.46-.27,12.68.24,1.08.13,1.54-.51,1.65-1.74a39,39,0,0,0-.1-4.95c-.13-3.24-.11-3.12-2.64-3-3.49.15-7,.18-10.47.34-3.16.14-3.54-.33-3.18-4.13.18-1.93.43-2.27,2.06-2.08,4.47.51,9,.13,13.43.26,1.42,0,1.76-.39,1.78-2.08,0-2,0-4,0-6,0-1.7-.36-2.16-1.76-2.07-1.9.13-3.81.22-5.71.2s-3.74-.07-5.6,0c-1.24.07-2.47.1-3.7.06q-4.17-.13-8.34-.31c-.95,0-1.45.38-1.48,1.59,0,2.29-.27,4.58-.2,6.86.24,7.92-.18,15.84.09,23.76C511.16,468.47,510.73,471,511,473.47Zm25.24-3.34c-.32.3-.51.28-.67-.06C535.76,469.65,536,469.72,536.21,470.13Zm-6.65,1.29a.26.26,0,0,1-.09.2c-.21.12-.32,0-.47-.29C529.29,471.21,529.46,471.19,529.56,471.42Zm-2.4.9,0,.08-.12-.11.06-.09Zm-.16-1.6h0Zm-.37-.34s.1-.12.13-.11c.22.06.19.25.16.44C526.79,470.65,526.6,470.65,526.63,470.39Zm7.94-33.34c.12-.06.18,0,.22.22l-.15.24a1,1,0,0,1-.16-.26A.25.25,0,0,1,534.57,437.05Zm-20.85,33a1.33,1.33,0,0,1,0-.19s0,0,.07,0l.06.19Zm1,.17-.21-.14c.05-.08.1-.22.16-.23a.26.26,0,0,1,.24.13C515,470.15,514.86,470.19,514.74,470.24Zm.6-1.39c-.12,0-.2-.06-.15-.21a.18.18,0,0,1,.16-.09s.08.11.12.17S515.39,468.85,515.34,468.85Zm.55,1.62c-.11-.1-.21-.16-.24-.24a.16.16,0,0,1,.15-.24.29.29,0,0,1,.22.16C516,470.22,515.95,470.33,515.89,470.47Zm2.39,1.3c0-.06-.12-.11-.12-.17,0-.4.12-.64.58-.51C518.72,471.54,518.48,471.63,518.28,471.77Zm3.2-30.13s-.05,0-.08-.07l.12-.17.13.15A.85.85,0,0,1,521.48,441.64Zm.47-1.46c-.06-.08-.16-.16-.17-.25s.09-.17.17-.32c.07.15.16.24.15.32S522,440.09,521.95,440.18Zm0-1.34h.06l0,.09Zm1.07,1.72c-.16,0-.33-.08-.32-.35.17-.17.32-.14.41.08A.41.41,0,0,1,523.06,440.56Zm1.85.54-.06,0,.07,0Zm8.14-2.88c0,.06.09.12.09.18s-.06.11-.1.16-.09-.12-.09-.17S533,438.27,533,438.22Zm-.22,3.18c-.36,0-.52-.46-.83-.33v0h0l0,0c-.65-.16-.2-1-.58-1.36C532.32,439.71,532.63,440.43,532.83,441.4Zm-4.12-5.4c1.1.93,1.16,1.06.77,2.15.59-.14,1.11-.11,1.07.86.66-.22,1.12-.45.77-1.33-.11-.28-.21-.56.08-.77a.35.35,0,0,1,.49.08.69.69,0,0,1,.09.8c-.22.62-.41,1.27-.61,1.9-1.09-.25-2.35.06-3-1.49-.58,1.3,0,1.88,1.59,1.83.36.54-.35,1,.06,1.55-.75,0-1.2-.44-1.72-.68s-1.37-1-2,.18c-.11.22-.38.15-.56,0s-.25-.38-.09-.54.15-.76.52-.69,1,.06.88-.25c-.23-.81.7-1.54.06-2.29-.5.08-.55.8-1.1,1,.14-.62-.36-.82-.61-1.26A13,13,0,0,0,528.71,436Zm-4.53,1.18a.37.37,0,0,1,.21.23c0,.18,0,.32-.27.36-.06-.09-.19-.2-.21-.33A.21.21,0,0,1,524.18,437.18Zm-2.5.38c1.23-.69,1.64.53,2.08,1.41.55,0,.45-.71.86-.75.78.21.12,1.22.91,1.62a3,3,0,0,1-2.83-1.22c-.45-.48-.7-.57-1.25-.23s-1.48.87-2.27.15C519.67,436.89,520.86,438,521.68,437.56Zm-2.54-.61a1.39,1.39,0,0,1-.56,1c-.09-.55-.17-1.08-.67-1.36C518.54,436.18,518.72,436.88,519.14,436.95Zm-1.56,24.17v0c-.25-.33-.68-.41-.84-1a9.28,9.28,0,0,0,1.89-.47C518.1,460,518.4,461.13,517.58,461.12Zm-.07,1c-.52-.42,0-.64.07-.92C517.62,461.52,517.75,461.84,517.51,462.14Zm.35-5.19.16,0,0,.11-.17,0S517.85,457,517.86,457Zm-.14,1.66c0-.09.11-.16.17-.24l.2.23c-.06.12-.1.27-.16.29S517.7,458.78,517.72,458.62Zm-.23-6,.13.1-.1.15a1,1,0,0,1-.09-.16S517.49,452.62,517.5,452.62Zm-.39-10.72c0,.08-.14.21-.2.2-.36,0-.27-.35-.32-.6C517,441.37,517.12,441.54,517.1,441.9Zm.06,14.18c.29,1.51-.35,1.44-1.15,1.18C515.92,456.24,516.45,456.12,517.16,456.08Zm-1.06,3c-.35-.36-.23-.69-.14-1.17A1.17,1.17,0,0,1,516.1,459.1Zm-.2-22.33a.21.21,0,0,1,.22.09c.06.19,0,.28-.33.38a.44.44,0,0,1,0-.22A.39.39,0,0,1,515.89,436.77Zm-.47,8.87v.1l-.17,0v-.11Zm-2.13,16.59c.08-.67.35-1.49,1.19-1.37.33.33-.1.91.44,1.19.24,0,.13-.48.47-.61.64.39.49,2.76,1.95,1.3a2.39,2.39,0,0,1,.75,1.81c.67,0,.28-.78.64-1.16a5.35,5.35,0,0,1-.5,2.85,2,2,0,0,0-.21,1.19c.23,1,.23,1-.61,1.45.42.93.28,1.62-.82,1.89,1-1.43-.23-1.93-.67-2.71-.74-1.31-1.73.38-2.62-.15.36-1.33,1.7-.17,2-1.3.53.22.73,1.21,1.38.71a1.16,1.16,0,0,0,.29-1.26,1.21,1.21,0,0,0-1.43-1c.06-1.09-.27-1.9-1.25-2.08C513.84,462.92,513.21,463,513.29,462.24Zm.28,3.67c0-.09.12-.16.17-.23s.28.17.24.35-.14.21-.2.2A.25.25,0,0,1,513.58,465.9Zm.55-1.66c.78-.13.78-.13.45,1.06C514.19,465,514.35,464.54,514.13,464.24Zm1.75,1.81c.06,0,.12-.08.16-.07s.06.11.09.18l-.12.13Zm-2.82,5.11a.26.26,0,0,1,.27.3c0,.71-.63.54-.95.82C512.62,471.91,512.5,471.21,513.05,471.16Z"/><path d="M564,469.92c3.69,4.06,7.79,6.89,12.94,6.13.64,0,1.17,0,1.7,0,3.78-.17,7.4-.88,10.64-3.56,4.07-3.37,5.24-11.6,2.73-15.92a13.12,13.12,0,0,0-7.17-5.91,37.13,37.13,0,0,0-8.68-2.1,2.65,2.65,0,0,1-2.36-2.62,2.72,2.72,0,0,1,2.17-3,12,12,0,0,1,9.34,1.61,1.42,1.42,0,0,0,2.28-.52,46.29,46.29,0,0,0,3-4.95,1.57,1.57,0,0,0-.54-2.28,21.05,21.05,0,0,0-4-2.26,19,19,0,0,0-13.33-.65c-3.32,1.07-6.24,2.93-7.62,7.12a17.46,17.46,0,0,0-.35,9,7,7,0,0,0,1.75,3.83,16.68,16.68,0,0,0,9.72,4.84,21.35,21.35,0,0,1,5.23.86,3.45,3.45,0,0,1,2.35,3.33,3.58,3.58,0,0,1-2.82,3,12.2,12.2,0,0,1-11.6-3.1c-1-1-1.5-.88-2.27.44a26.33,26.33,0,0,1-3.09,4.32C563.06,468.54,563.08,468.92,564,469.92Zm19.54-29.39a.28.28,0,0,1,.18.21c0,.08-.1.16-.17.27-.1-.08-.23-.12-.24-.2S583.38,440.51,583.52,440.53Zm-2.2-3.35s.13.05.13.09a1.8,1.8,0,0,1,0,.33c-.08-.05-.17-.08-.17-.11A1.91,1.91,0,0,1,581.33,437.18Zm-9,16.31s0,0,.06.07l-.07.06-.08,0Zm-3.06-1.72-.26-.19.18-.26a1.29,1.29,0,0,1,.17.26S569.26,451.71,569.23,451.78Zm2.54-1.21-.06-.12.08,0Zm.48,5.45c-.06,0-.2-.11-.24-.23a.25.25,0,0,1,.19-.34.26.26,0,0,1,.31.22C572.56,455.84,572.49,456,572.25,456Zm1.26-3.08a1.47,1.47,0,0,1,0,1C572.77,453.57,573,453.27,573.51,452.93Zm-.19,2.1c.41,0,.66.13.67.67C573.27,455.88,573.27,455.88,573.32,455Zm11,3.42c-.45-.66-.58-1.12.24-1.35A2.15,2.15,0,0,1,584.36,458.45Zm2.92,10.75c0,.37-.11.63-.46.76C586.71,469.38,587,469.35,587.28,469.21Zm-1.13-12.5,0,.07h-.08Zm-.28,1.55c0-.26.16-.48.4-.5s.32.13.36.37-.18.56-.48.55S585.84,458.51,585.87,458.26Zm-3.15-4.42c.13-.08.24,0,.37.19-.14.16-.26.18-.38.08A.15.15,0,0,1,582.72,453.84Zm-1.88-1.27c.3.23.2.44.15.68C580.69,453.09,580.64,452.91,580.84,452.57Zm-4.15-.3c1,0,.63.52.29,1C576.42,453.1,576.77,452.64,576.7,452.27Zm.65,1.32s0-.05,0-.08l.08,0,0,.14S577.36,453.61,577.34,453.59Zm1.42,0-.07,0,.07,0Zm3.06,4.09.3-.24C582.08,457.71,581.93,457.63,581.83,457.64Zm1.83-.46a1,1,0,0,1-.17-.09s.05-.09.07-.08a.94.94,0,0,1,.17.08S583.67,457.19,583.66,457.19Zm-1.89.48,0,0c-.25-.72-.55-1.36-1.35-1.2-.58.11-.77-.47-1.13-.88.41-.92,1.33-1.08,1.83-2,.24.74-.43,1.09-.22,1.75.06,0,.22.22.29.18.85-.51,1.94-.51,2.59-1.39s1-.41,1.32.38c-.32.39-1.13.24-.71,1.15A5.4,5.4,0,0,0,581.77,457.67ZM584,470.61l-.55-1.18C584.28,469.49,584.24,469.9,584,470.61Zm-1-2.45c0-.08.15-.19.2-.18s.12.16.25.36c-.1.06-.18.14-.27.15S583,468.33,583,468.16Zm-1.59,2.34a1.17,1.17,0,0,1-1.18.83C580.57,470.56,581.16,470.94,581.41,470.5Zm-4.09.66c.67,0,.45.65.58,1.22-.52,0-1,.27-1.05-.4C576.79,471.61,576.93,471.16,577.32,471.16Zm-.84-.74a.24.24,0,0,1,.08.19c-.06.24-.23.24-.47.2C576.2,470.56,576.25,470.33,576.47,470.42Zm-1-.88,0,.06v-.07Zm-6.57,2.32c-.06,0-.14,0-.15-.1s0-.13.06-.19.14,0,.15.09S568.9,471.79,568.88,471.86Zm2,.62c.31.12.72.08.86.72A1,1,0,0,1,570.9,472.49Zm2.56-.13a1.11,1.11,0,0,1-.09-.17s0-.09.06-.08l.14.11Zm1.48,1.22c-.51-.1-.5-.84-1-.79a1.9,1.9,0,0,1,.88-1.36Zm-2.39-4.75c-.45.05-.6-.36-.83-.59C572.26,468,572.49,468.2,572.55,468.82Zm-.93-1.71.2.16a1,1,0,0,1-.19.22s-.13-.06-.16-.12S571.48,467.17,571.61,467.11Zm-3.24-.13a1.12,1.12,0,0,1,.09.14l-.07.06-.1-.14S568.37,467,568.37,467Zm2,1.18.5,1.07c-.46-.08-.88-.68-1.22,0-.2.38.05.65.24.87.43.5.94.24,1.23-.12a1.32,1.32,0,0,1,1.19-.56c.83,0,.78-1.07,1.23-1.52.73.28.73.28.87,1.1-.19.39-.54,0-.81.3s.42.5.22,1c-.73.11-1.44.36-1.23,1.59a1.35,1.35,0,0,1-1.81,0l0,.61c-.54.08-.73-.57-1-.86-.9-.83-.84-.91-1.8-1C567.7,468.23,569.39,468.69,570.42,468.16Zm-2.53,0c.22,0,.28.17.34.37s-.11.39-.33.36a.29.29,0,0,1-.28-.29A.36.36,0,0,1,567.89,468.16Zm-1.38.37.15.1-.06.19c-.05,0-.13,0-.14-.09S566.5,468.6,566.52,468.53Z"/><path d="M444.2,443.65c1.24-.15,1.48.14,1.46,1.6-.05,6.57.54,13.13,0,19.7,0,2.84,0,5.68,0,8.51,0,1.1.25,1.53,1.24,1.64,2.47.29,4.94-.3,7.4.2.85.17,1.23-.5,1.12-1.49a80,80,0,0,1-.15-9.27c0-6.27,0-12.54.1-18.8,0-1.85.39-2.15,2-2,2.21.19,4.44-.22,6.65.17.76.13,1.31-.37,1.34-1.38.07-2.28.12-4.57.16-6.86a1.47,1.47,0,0,0-1.24-1.69,16.6,16.6,0,0,0-3.7,0c-3.32,0-6.65-.12-10,0-4.34.2-8.67.09-13,0-1.45,0-1.93.41-1.94,2.18s0,3.73.05,5.59c0,1.52.3,1.9,1.59,1.84C439.62,443.5,441.9,443.92,444.2,443.65Zm4.64,28.62,0-.11.07,0Zm2.74-.83-.7-1c.6-.29.57-.87.55-1.49C452.22,469.67,452,470.45,451.58,471.43Zm1.89-2.67c.14-.08.25,0,.31.23,0,.06-.09.18-.16.22s-.28,0-.3-.18A.35.35,0,0,1,453.48,468.76Zm-.11-1.61c-.17.64-.58.58-1,.45l0-.1c.11-.44.19-.95.69-.92C453.3,466.6,453.45,466.87,453.37,467.15Zm-1.75-1c-.33.33.53,1.11-.37,1.14h0c.14,1.11.68.45,1.09.37.08.59-.21.78-.64.86-.61.12-.6.13-1.48-1.25a3.72,3.72,0,0,1,1.25-2.12c-1-.41-1.79.36-1.75,1.53,0,1.55,0,1.55-1.35,1.49.25-.59.49-1.18,0-1.76a.58.58,0,0,1,0-.47c1.14-.89.75-2.39,1-3.62H450c0,.46-.47,1.24,0,1.26.67,0,1.4.84,2,0,0-.8-.76-.58-1-1.17.3-.38,1.17,0,1.09-1l1.12,3.94C452.9,465.85,452.4,466.48,451.61,466.12Zm-2.34-6.5a.36.36,0,0,1,.13.27c0,.12-.08.24-.2.17s-.11-.16-.19-.28C449.12,459.71,449.22,459.6,449.27,459.62Zm-.22-1.16a1.6,1.6,0,0,1,.17-.35c.06.17.14.28.12.36s-.13.13-.21.19S449,458.52,449,458.46Zm.38,3.81-.58.58a.57.57,0,0,1,0-.88C449.17,461.72,449.33,462,449.43,462.27Zm2.37-3.15c.28.43.31.71,0,1C451.29,459.86,451.51,459.56,451.8,459.12Zm.1-17.34c.58.25.72.55.34,1.09C451.78,442.69,451.71,442.37,451.9,441.78Zm0,7.49c0,.32-.17.27-.32.14a1.41,1.41,0,0,1-.19-.34C451.71,449,451.89,449.06,451.9,449.28Zm.39,2.6a2.29,2.29,0,0,1-.45,1.42l-1-.56A2.62,2.62,0,0,0,452.29,451.88Zm-1.49.86h0Zm-.13.86.88.8a3,3,0,0,0,.16,2.5,2.27,2.27,0,0,1-.13,1.57.63.63,0,0,1-1,.3c-.34-.33,0-.69.2-.94.42-.45.37-.84.1-1.43A2.9,2.9,0,0,1,450.67,453.61Zm-.25,3.57c-.05.1-.1.09-.12,0s0-.06,0-.09.06,0,.08,0A.13.13,0,0,1,450.42,457.17Zm0-12.62s0,.07,0,.1l-.07.06-.06-.15S450.36,444.54,450.39,444.56Zm.8,15.63c-.28,1.21-1.09.59-1.61,1-.26-1,.68-1.18.62-2C450.53,459.59,450.72,460.09,451.19,460.18ZM449.72,457a.25.25,0,0,1-.06.2c-.18.15-.32.08-.44-.2C449.45,456.83,449.6,456.8,449.72,457Zm-.61-10.81c-.2.55-.41.61-.75.36C448.46,446.07,448.69,446,449.11,446.22Zm-.9,10.47-.17.1c0-.07-.06-.15,0-.21s.1-.06.15-.08Zm-.3-18.47c.11,0,.19,0,.18.26-.06,0-.15.13-.22.11s-.09-.16-.12-.26S447.86,438.23,447.92,438.22Z"/><path d="M647,447.18a.35.35,0,0,0-.21.23.32.32,0,0,0,.17.4c.19.06.21-.15.26-.3S647.16,447.15,647,447.18Z"/><path d="M495.93,455.85c.08.28.21.46.46.28a.27.27,0,0,0,.05-.22C496.31,455.61,496.12,455.68,495.93,455.85Z"/><path d="M518.07,464.6h0v0h0S518.07,464.58,518.07,464.6Z"/><path d="M517.38,465.33c.56.07.73-.21.69-.74A.84.84,0,0,0,517.38,465.33Z"/><path d="M532,441c0-.11,0-.21,0-.33C531.82,440.85,531.92,440.95,532,441Z"/><path d="M581.61,456.4a1,1,0,0,0,.09.17l.12-.16a1,1,0,0,0-.15-.1S581.6,456.38,581.61,456.4Z"/><path d="M451.15,467.3l-.08,0,.18-.08h0Z"/><path class="cls-2" d="M413.07,401.25l-.44-1c-.21-.46-.42-.92-.64-1.37-.4-.83-.81-1.66-1.21-2.48l-.66-1.35c-.29-.6-.58-1.19-.89-1.78h0q-1-1.9-2-3.78c-.69-1.29-1.39-2.59-2.12-3.86-.43-.76-.89-1.51-1.34-2.26l-.27-.44q-.61-1-1.24-2a13.3,13.3,0,0,0-2.05-2.45,23.16,23.16,0,0,0-3-2.43l-.14-.09c-.44-.89-3.88-8-7.52-15.59L388.43,358c4.76-9.72,9.53-19.5,9.81-20.12a5.94,5.94,0,0,1,1.79-2.24c.42-.34.83-.7,1.23-1.06a1.89,1.89,0,0,0,.23-2.78,3.75,3.75,0,0,0-1.17-.93l-.19-.11a5.55,5.55,0,0,0-2.77-.77h0a1.71,1.71,0,0,0-1.51.86,3.65,3.65,0,0,0-.56,2.07v.2c0,.47,0,.94,0,1.4a2,2,0,0,1-.07.57c-.26.56-4.49,9.28-8.94,18.41-4.07-8.45-7.75-16.07-8-16.61a5.94,5.94,0,0,1-.65-2.79c0-.54,0-1.08-.07-1.62a1.9,1.9,0,0,0-2-1.9,3.85,3.85,0,0,0-1.45.35l-.21.08a5.55,5.55,0,0,0-2.31,1.7,1.71,1.71,0,0,0-.29,1.76,3.66,3.66,0,0,0,1.29,1.72l.15.1c.39.28.77.56,1.14.86a2,2,0,0,1,.4.41c.28.55,5.13,10.56,9.9,20.42l-8.23,16.9-.06.14c0,.05-.05.1,0,.1l-1.16,1c-.55.48-1.11,1-1.64,1.45a20.93,20.93,0,0,0-1.84,1.94,24.72,24.72,0,0,0-1.67,2.27c-.79,1.21-1.7,2.62-2.53,4.06s-1.58,2.92-2.32,4.36-1.56,3.08-2.39,4.85c-.56,1.19-1.09,2.4-1.62,3.6l-.64,1.44a2.67,2.67,0,0,0,1,3.42,9,9,0,0,0,.85.46l.15.08,3.8,1.91a2.82,2.82,0,0,0,1.25.32,1.81,1.81,0,0,0,.76-.16,2.32,2.32,0,0,0,1.41-1.08l.47-.92c.23-.45.47-.91.69-1.37.4-.81.79-1.63,1.18-2.45l.69-1.44c.28-.59.56-1.17.83-1.76h0q.89-1.94,1.74-3.89c.59-1.35,1.17-2.7,1.73-4.05.33-.81.63-1.62.94-2.44l.18-.49q.41-1.1.79-2.2a13.3,13.3,0,0,0,.66-3.13,23.26,23.26,0,0,0,.08-3.83c0-.05,0-.11,0-.16.41-.85,3.59-7.36,7.07-14.48l7.22,14.93.07.14c0,.05.06.1.06.08,0,.51.06,1,.08,1.54,0,.73.07,1.46.13,2.19a20.82,20.82,0,0,0,.39,2.65,24.57,24.57,0,0,0,.75,2.72c.49,1.44,1,3,1.62,4.5s1.35,3.13,2,4.51,1.47,3.16,2.33,4.88c.59,1.17,1.21,2.34,1.82,3.5l.74,1.4a2.66,2.66,0,0,0,2.37,1.48,2.9,2.9,0,0,0,.94-.16,8.85,8.85,0,0,0,.88-.37l.17-.08,3.86-1.8A2.38,2.38,0,0,0,413,403,2.32,2.32,0,0,0,413.07,401.25Z"/><path class="cls-2" d="M291,387.37c.08-1,.11-2.07.15-3.1q0-1.16.07-2.31a12.37,12.37,0,0,0-.33-2.95,22.37,22.37,0,0,0-1-3.45,1.38,1.38,0,0,1-.16-.62c.15-1.24,4.07-29.44,4.21-30.76a6.93,6.93,0,0,1,1.16-3.13c.29-.44.55-.89.81-1.34a.91.91,0,0,0-.35-1.39,3.71,3.71,0,0,0-1.27-.41,4.54,4.54,0,0,0-2.36.12.71.71,0,0,0-.53.57,2.66,2.66,0,0,0,.08,1.57c.2.52.4,1,.55,1.58a2.52,2.52,0,0,1,.15,1c-.14,1.24-4,29.82-4.26,31.5a1.74,1.74,0,0,1-.14.62c-.62,1.07-1.29,2.12-1.88,3.2a19.9,19.9,0,0,0-1.09,2.3,23.75,23.75,0,0,0-.85,2.57c-.41,1.52-.81,3-1.13,4.59s-1,6.87-1.24,8.69a1.66,1.66,0,0,0,1.29,1.87,10,10,0,0,0,1,.18l4.21.64a1.43,1.43,0,0,0,1.18-.26c.36-.3.6-.5.66-.85C290.07,396.91,290.93,388.83,291,387.37Z"/><path class="cls-2" d="M248.24,385.12h60.12s4.55,6.34-29.68,6.34S248.24,385.12,248.24,385.12Z"/><circle class="cls-2" cx="276.54" cy="336.01" r="5.58"/><path class="cls-2" d="M269.93,344.07a136.59,136.59,0,0,0-6.13,19.35C262.36,370.59,256,386,256,386l5.65.55,7-18.22a6.43,6.43,0,0,1,3.31,3.48c1,2.55.28,15.56.28,15.56l4.82-.34.48-14.26s.48-4.2-2.07-6.26-6.05-3.86.42-15.09c0,0,10.44,8.92,14.67,8.8s2.85-3.58.23-5.05c-2.92-1.65-11-3.81-15.48-10.7Z"/><path class="cls-2" d="M279.24,343.62l4,4.26,12-6.66a2.12,2.12,0,0,0,.67-3.12h0a2.12,2.12,0,0,0-2.55-.67Z"/><path class="cls-2" d="M236.85,397.47a.38.38,0,0,1-.51-.54c1.78-2.49,6-6.47,14.74-6.47,12.74,0,22.92,13.49,35.19,13.49,8,0,14.5-4.3,18-7.26a1.17,1.17,0,0,1,1.84,1.34c-1.73,4.33-6.37,10.54-18.8,10.54-16.11,0-21.6-13.77-36.32-13.77C242.83,394.79,238.78,396.29,236.85,397.47Z"/><path class="cls-2" d="M459.9,395.15a.66.66,0,0,1-.75-1.05,22.12,22.12,0,0,1,15.93-6.62c13,0,28.77,15.62,43.34,15.62a28.19,28.19,0,0,0,20-8.71.66.66,0,0,1,1.08.73c-2.27,5-7.85,13.39-19.46,13.39-20.9,0-29.13-16.09-44.63-16.09C467.6,392.41,462.77,393.79,459.9,395.15Z"/><path class="cls-2" d="M475.32,383.52s3.79-12.82,11.48-16.51c0,0-3.18-14.77,13.95-22.66V342s-5.93-.85-9.13-13.64a2.1,2.1,0,0,1,1.2-2.43l3.54-1.53a2.08,2.08,0,0,1,2.53.71c2.24,3.18,7.2,11.15,3.81,15.25l18.66,41.53s6,1.21,8.13,12.39a2.12,2.12,0,0,1-1.28,2.37,32.42,32.42,0,0,1-12,2.29C508.24,398.92,493.78,383.52,475.32,383.52Z"/><path d="M496.82,378c2.1,1.37,8,4.11,20.75,2.86l.72,1.44a15.22,15.22,0,0,0,0,11.07s-15.38-7.8-27.28-8.72c0,0,1.09-4.12,3.64-6.47A1.76,1.76,0,0,1,496.82,378Z"/><path d="M502.43,348.86l12.89,27.07s-12.92,3-19.89-4.61S491.39,357.17,502.43,348.86Z"/><circle class="cls-2" cx="500.34" cy="365.27" r="6.05"/></svg>